<svg viewBox="0 0 800 480" xmlns="http://www.w3.org/2000/svg" style="background-color: #faf8f2;">
  <text x="50%" y="40" font-family="sans-serif" font-size="24" text-anchor="middle" fill="#1f2a44">Best Online Platform for Startup Incorporation</text>
  
  <rect x="100" y="100" width="160" height="80" rx="20" ry="20" fill="none" stroke="#1f2a44" stroke-width="3"/>
  <text x="180" y="145" font-family="sans-serif" font-size="16" text-anchor="middle" fill="#1f2a44">User Sign-Up</text>

  <rect x="300" y="100" width="160" height="80" rx="20" ry="20" fill="none" stroke="#1f2a44" stroke-width="3"/>
  <text x="380" y="145" font-family="sans-serif" font-size="16" text-anchor="middle" fill="#1f2a44">Business Questionnaire</text>

  <rect x="500" y="100" width="160" height="80" rx="20" ry="20" fill="none" stroke="#1f2a44" stroke-width="3"/>
  <text x="580" y="145" font-family="sans-serif" font-size="16" text-anchor="middle" fill="#1f2a44">Document Preparation</text>

  <rect x="100" y="300" width="160" height="80" rx="20" ry="20" fill="none" stroke="#1f2a44" stroke-width="3"/>
  <text x="180" y="345" font-family="sans-serif" font-size="16" text-anchor="middle" fill="#1f2a44">Payment Processing</text>

  <rect x="300" y="300" width="160" height="80" rx="20" ry="20" fill="none" stroke="#1f2a44" stroke-width="3"/>
  <text x="380" y="345" font-family="sans-serif" font-size="16" text-anchor="middle" fill="#1f2a44">Incorporation Filing</text>

  <line x1="180" y1="180" x2="300" y2="140" stroke="#1f2a44" stroke-width="3" stroke-linecap="round"/>
  <line x1="380" y1="180" x2="500" y2="140" stroke="#1f2a44" stroke-width="3" stroke-linecap="round"/>
  <line x1="180" y1="380" x2="300" y2="340" stroke="#1f2a44" stroke-width="3" stroke-linecap="round"/>
  <line x1="380" y1="380" x2="500" y2="340" stroke="#1f2a44" stroke-width="3" stroke-linecap="round"/>

  <line x1="300" y1="180" x2="300" y2="300" stroke="#1f2a44" stroke-width="3" stroke-linecap="round"/>
</svg>