<svg viewBox="0 0 800 480" xmlns="http://www.w3.org/2000/svg" style="background-color:#faf8f2;">
  <text x="50%" y="30" font-family="sans-serif" font-size="24" text-anchor="middle" fill="#1f2a44">Best Legal Service for Startup Registration</text>
  
  <rect x="100" y="80" width="200" height="80" rx="15" ry="15" stroke="#1f2a44" stroke-width="3" fill="none"/>
  <text x="200" y="120" font-family="sans-serif" font-size="18" text-anchor="middle" fill="#1f2a44">Research Legal Services</text>

  <rect x="400" y="80" width="200" height="80" rx="15" ry="15" stroke="#1f2a44" stroke-width="3" fill="none"/>
  <text x="500" y="120" font-family="sans-serif" font-size="18" text-anchor="middle" fill="#1f2a44">Compare Features</text>

  <rect x="100" y="220" width="200" height="80" rx="15" ry="15" stroke="#1f2a44" stroke-width="3" fill="none"/>
  <text x="200" y="260" font-family="sans-serif" font-size="18" text-anchor="middle" fill="#1f2a44">Select Best Option</text>

  <rect x="400" y="220" width="200" height="80" rx="15" ry="15" stroke="#1f2a44" stroke-width="3" fill="none"/>
  <text x="500" y="260" font-family="sans-serif" font-size="18" text-anchor="middle" fill="#1f2a44">Register Startup</text>

  <rect x="250" y="360" width="300" height="80" rx="15" ry="15" stroke="#1f2a44" stroke-width="3" fill="none"/>
  <text x="400" y="400" font-family="sans-serif" font-size="18" text-anchor="middle" fill="#1f2a44">Obtain Confirmation & Support</text>

  <line x1="200" y1="160" x2="400" y2="160" stroke="#1f2a44" stroke-width="3" stroke-linecap="round"/>
  <line x1="200" y1="240" x2="400" y2="240" stroke="#1f2a44" stroke-width="3" stroke-linecap="round"/>
  <line x1="300" y1="360" x2="300" y2="300" stroke="#1f2a44" stroke-width="3" stroke-linecap="round"/>
  
  <path d="M 300 300 Q 320 280, 400 300" stroke="#1f2a44" stroke-width="3" fill="none" stroke-linecap="round"/>
</svg>