<svg viewBox="0 0 800 480" xmlns="http://www.w3.org/2000/svg" style="background-color:#faf8f2;">
  <text x="400" y="40" font-family="sans-serif" font-size="24" text-anchor="middle" fill="#1f2a44">Best Online Platform for Startup Incorporation</text>
  
  <g>
    <rect x="100" y="80" width="200" height="100" rx="15" ry="15" fill="none" stroke="#1f2a44" stroke-width="3"/>
    <text x="200" y="130" font-family="sans-serif" font-size="16" text-anchor="middle" fill="#1f2a44">User Registration</text>
    
    <rect x="350" y="60" width="200" height="100" rx="15" ry="15" fill="none" stroke="#1f2a44" stroke-width="3" transform="rotate(-4 450 110)"/>
    <text x="450" y="110" font-family="sans-serif" font-size="16" text-anchor="middle" fill="#1f2a44">Platform Features</text>
    
    <rect x="600" y="80" width="200" height="100" rx="15" ry="15" fill="none" stroke="#1f2a44" stroke-width="3"/>
    <text x="700" y="130" font-family="sans-serif" font-size="16" text-anchor="middle" fill="#1f2a44">Incorporation Process</text>
    
    <rect x="350" y="230" width="200" height="100" rx="15" ry="15" fill="none" stroke="#1f2a44" stroke-width="3" transform="rotate(2 450 280)"/>
    <text x="450" y="280" font-family="sans-serif" font-size="16" text-anchor="middle" fill="#1f2a44">Compliance & Support</text>
    
    <rect x="100" y="230" width="200" height="100" rx="15" ry="15" fill="none" stroke="#1f2a44" stroke-width="3"/>
    <text x="200" y="280" font-family="sans-serif" font-size="16" text-anchor="middle" fill="#1f2a44">Funding Options</text>
  </g>
  
  <line x1="200" y1="180" x2="350" y2="110" stroke="#1f2a44" stroke-width="3" stroke-linecap="round"/>
  <line x1="450" y1="180" x2="600" y2="130" stroke="#1f2a44" stroke-width="3" stroke-linecap="round"/>
  <line x1="450" y1="180" x2="450" y2="230" stroke="#1f2a44" stroke-width="3" stroke-linecap="round"/>
  <line x1="200" y1="180" x2="200" y2="230" stroke="#1f2a44" stroke-width="3" stroke-linecap="round"/>
  
  <polygon points="350,130 365,145 350,160" fill="#1f2a44"/>
  <polygon points="600,130 615,145 600,160" fill="#1f2a44"/>
  <polygon points="450,230 465,245 450,260" fill="#1f2a44"/>
  <polygon points="200,230 215,245 200,260" fill="#1f2a44"/>
</svg>