<svg viewBox="0 0 800 480" xmlns="http://www.w3.org/2000/svg" xmlns:xlink="http://www.w3.org/1999/xlink" style="background-color:#faf8f2;">
  <text x="400" y="40" font-family="sans-serif" font-size="24" text-anchor="middle" fill="#1f2a44">Best Legal Service for Startup Registration</text>
  <rect x="100" y="100" width="160" height="80" rx="10" ry="10" stroke="#1f2a44" stroke-width="3" fill="none"/>
  <text x="180" y="145" font-family="sans-serif" font-size="16" text-anchor="middle" fill="#1f2a44">Research Options</text>
  
  <rect x="300" y="100" width="160" height="80" rx="10" ry="10" stroke="#1f2a44" stroke-width="3" fill="none" transform="rotate(-5 380 140)"/>
  <text x="380" y="145" font-family="sans-serif" font-size="16" text-anchor="middle" fill="#1f2a44">Legal Consultations</text>
  
  <rect x="500" y="100" width="160" height="80" rx="10" ry="10" stroke="#1f2a44" stroke-width="3" fill="none" transform="rotate(5 580 140)"/>
  <text x="580" y="145" font-family="sans-serif" font-size="16" text-anchor="middle" fill="#1f2a44">Choose Service</text>
  
  <rect x="100" y="260" width="160" height="80" rx="10" ry="10" stroke="#1f2a44" stroke-width="3" fill="none"/>
  <text x="180" y="295" font-family="sans-serif" font-size="16" text-anchor="middle" fill="#1f2a44">Document Preparation</text>
  
  <rect x="500" y="260" width="160" height="80" rx="10" ry="10" stroke="#1f2a44" stroke-width="3" fill="none" transform="rotate(-3 580 300)"/>
  <text x="580" y="295" font-family="sans-serif" font-size="16" text-anchor="middle" fill="#1f2a44">Registration Submission</text>
  
  <line x1="160" y1="180" x2="300" y2="180" stroke="#1f2a44" stroke-width="3" stroke-linecap="round"/>
  <line x1="460" y1="180" x2="500" y2="180" stroke="#1f2a44" stroke-width="3" stroke-linecap="round"/>
  <line x1="180" y1="260" x2="180" y2="100" stroke="#1f2a44" stroke-width="3" stroke-linecap="round" stroke-dasharray="5,5"/>
  <line x1="580" y1="200" x2="580" y2="260" stroke="#1f2a44" stroke-width="3" stroke-linecap="round" stroke-dasharray="5,5"/>
</svg>