<svg viewBox="0 0 800 480" xmlns="http://www.w3.org/2000/svg" style="background-color: #faf8f2;">
  <text x="400" y="40" font-family="sans-serif" font-size="24" text-anchor="middle" fill="#1f2a44">Best Online Platform for Startup Incorporation</text>
  <rect x="100" y="100" width="180" height="80" rx="15" ry="15" fill="none" stroke="#1f2a44" stroke-width="3"/>
  <text x="190" y="145" font-family="sans-serif" font-size="16" text-anchor="middle" fill="#1f2a44">User Registration</text>
  
  <rect x="300" y="100" width="180" height="80" rx="15" ry="15" fill="none" stroke="#1f2a44" stroke-width="3"/>
  <text x="390" y="145" font-family="sans-serif" font-size="16" text-anchor="middle" fill="#1f2a44">Document Submission</text>
  
  <rect x="500" y="100" width="180" height="80" rx="15" ry="15" fill="none" stroke="#1f2a44" stroke-width="3"/>
  <text x="590" y="145" font-family="sans-serif" font-size="16" text-anchor="middle" fill="#1f2a44">Review Process</text>

  <rect x="100" y="220" width="180" height="80" rx="15" ry="15" fill="none" stroke="#1f2a44" stroke-width="3"/>
  <text x="190" y="255" font-family="sans-serif" font-size="16" text-anchor="middle" fill="#1f2a44">Approval Notification</text>
  
  <rect x="300" y="220" width="180" height="80" rx="15" ry="15" fill="none" stroke="#1f2a44" stroke-width="3"/>
  <text x="390" y="255" font-family="sans-serif" font-size="16" text-anchor="middle" fill="#1f2a44">Entity Formation</text>

  <line x1="180" y1="100" x2="300" y2="140" stroke="#1f2a44" stroke-width="3" marker-end="url(#arrowhead)" />
  <line x1="480" y1="140" x2="600" y2="100" stroke="#1f2a44" stroke-width="3" marker-end="url(#arrowhead)" />
  <line x1="180" y1="220" x2="300" y2="260" stroke="#1f2a44" stroke-width="3" marker-end="url(#arrowhead)" />
  <line x1="480" y1="260" x2="600" y2="220" stroke="#1f2a44" stroke-width="3" marker-end="url(#arrowhead)" />
  
  <defs>
    <marker id="arrowhead" markerWidth="10" markerHeight="7" refX="0" refY="3.5" orient="auto">
      <polygon points="0 0, 10 3.5, 0 7" fill="#1f2a44" />
    </marker>
  </defs>
</svg>