<svg viewBox="0 0 800 480" xmlns="http://www.w3.org/2000/svg" style="background-color: #faf8f2;">
  <text x="50%" y="40" text-anchor="middle" font-family="sans-serif" font-size="24" fill="#1f2a44">Best Online Platform for Startup Incorporation</text>
  <rect x="50" y="80" width="200" height="80" rx="15" ry="15" stroke="#1f2a44" stroke-width="3" fill="none"/>
  <text x="150" y="120" text-anchor="middle" font-family="sans-serif" font-size="16" fill="#1f2a44">User Registration</text>
  
  <rect x="300" y="80" width="200" height="80" rx="15" ry="15" stroke="#1f2a44" stroke-width="3" fill="none"/>
  <text x="400" y="120" text-anchor="middle" font-family="sans-serif" font-size="16" fill="#1f2a44">Document Preparation</text>
  
  <rect x="550" y="80" width="200" height="80" rx="15" ry="15" stroke="#1f2a44" stroke-width="3" fill="none"/>
  <text x="650" y="120" text-anchor="middle" font-family="sans-serif" font-size="16" fill="#1f2a44">Payment Processing</text>
  
  <rect x="150" y="240" width="200" height="80" rx="15" ry="15" stroke="#1f2a44" stroke-width="3" fill="none"/>
  <text x="250" y="280" text-anchor="middle" font-family="sans-serif" font-size="16" fill="#1f2a44">Incorporation Filing</text>
  
  <rect x="400" y="240" width="200" height="80" rx="15" ry="15" stroke="#1f2a44" stroke-width="3" fill="none"/>
  <text x="500" y="280" text-anchor="middle" font-family="sans-serif" font-size="16" fill="#1f2a44">Post-Incorporation Services</text>
  
  <line x1="250" y1="160" x2="300" y2="160" stroke="#1f2a44" stroke-width="3" stroke-linecap="round"/>
  <line x1="500" y1="160" x2="550" y2="160" stroke="#1f2a44" stroke-width="3" stroke-linecap="round"/>
  <line x1="250" y1="240" x2="300" y2="240" stroke="#1f2a44" stroke-width="3" stroke-linecap="round"/>
  <line x1="500" y1="240" x2="550" y2="240" stroke="#1f2a44" stroke-width="3" stroke-linecap="round"/>
  <line x1="350" y1="160" x2="350" y2="240" stroke="#1f2a44" stroke-width="3" stroke-linecap="round"/>
  <line x1="600" y1="160" x2="600" y2="240" stroke="#1f2a44" stroke-width="3" stroke-linecap="round"/>
</svg>