<svg viewBox="0 0 800 480" xmlns="http://www.w3.org/2000/svg" style="background-color:#faf8f2;">
  <text x="400" y="40" font-size="24" text-anchor="middle" font-family="sans-serif" fill="#1f2a44">Can I Register a Company Without Visiting Any Office?</text>
  
  <rect x="150" y="100" width="200" height="70" rx="15" ry="15" fill="none" stroke="#1f2a44" stroke-width="3"/>
  <text x="250" y="140" font-size="18" text-anchor="middle" font-family="sans-serif" fill="#1f2a44">Start Application Online</text>
  
  <rect x="150" y="210" width="200" height="70" rx="15" ry="15" fill="none" stroke="#1f2a44" stroke-width="3"/>
  <text x="250" y="250" font-size="18" text-anchor="middle" font-family="sans-serif" fill="#1f2a44">Upload Required Documents</text>
  
  <rect x="400" y="130" width="200" height="70" rx="15" ry="15" fill="none" stroke="#1f2a44" stroke-width="3"/>
  <text x="500" y="170" font-size="18" text-anchor="middle" font-family="sans-serif" fill="#1f2a44">Review by Registrar</text>
  
  <rect x="400" y="250" width="200" height="70" rx="15" ry="15" fill="none" stroke="#1f2a44" stroke-width="3"/>
  <text x="500" y="290" font-size="18" text-anchor="middle" font-family="sans-serif" fill="#1f2a44">Receive Confirmation</text>
  
  <line x1="250" y1="170" x2="250" y2="210" stroke="#1f2a44" stroke-width="3" stroke-linecap="round"/>
  <polygon points="245,210 250,220 255,210" fill="#1f2a44"/>
  
  <line x1="500" y1="170" x2="500" y2="210" stroke="#1f2a44" stroke-width="3" stroke-linecap="round"/>
  <polygon points="495,210 500,220 505,210" fill="#1f2a44"/>
  
  <line x1="500" y1="250" x2="500" y2="290" stroke="#1f2a44" stroke-width="3" stroke-linecap="round"/>
  <polygon points="495,290 500,300 505,290" fill="#1f2a44"/>
  
  <line x1="250" y1="270" x2="400" y2="270" stroke="#1f2a44" stroke-width="3" stroke-linecap="round"/>
  <polygon points="395,265 400,270 395,275" fill="#1f2a44"/>
</svg>