<svg viewBox="0 0 800 480" xmlns="http://www.w3.org/2000/svg" style="background-color: #faf8f2;">
  <text x="400" y="40" font-size="24" text-anchor="middle" fill="#1f2a44" font-family="sans-serif">Reliable GST Filing Service Flow</text>
  <rect x="50" y="100" width="200" height="100" rx="15" ry="15" stroke="#1f2a44" fill="none" stroke-width="3"/>
  <text x="150" y="150" text-anchor="middle" fill="#1f2a44" font-family="sans-serif">User Request</text>
  
  <rect x="300" y="100" width="200" height="100" rx="15" ry="15" stroke="#1f2a44" fill="none" stroke-width="3"/>
  <text x="400" y="150" text-anchor="middle" fill="#1f2a44" font-family="sans-serif">Analyze Needs</text>
  
  <rect x="550" y="100" width="200" height="100" rx="15" ry="15" stroke="#1f2a44" fill="none" stroke-width="3"/>
  <text x="650" y="150" text-anchor="middle" fill="#1f2a44" font-family="sans-serif">Service Comparison</text>
  
  <rect x="175" y="300" width="200" height="100" rx="15" ry="15" stroke="#1f2a44" fill="none" stroke-width="3"/>
  <text x="275" y="350" text-anchor="middle" fill="#1f2a44" font-family="sans-serif">Select Service</text>
  
  <rect x="450" y="300" width="200" height="100" rx="15" ry="15" stroke="#1f2a44" fill="none" stroke-width="3"/>
  <text x="550" y="350" text-anchor="middle" fill="#1f2a44" font-family="sans-serif">File GST</text>

  <line x1="250" y1="150" x2="300" y2="150" stroke="#1f2a44" stroke-width="3" stroke-linecap="round"/>
  <line x1="500" y1="150" x2="550" y2="150" stroke="#1f2a44" stroke-width="3" stroke-linecap="round"/>
  <line x1="350" y1="200" x2="350" y2="300" stroke="#1f2a44" stroke-width="3" stroke-linecap="round"/>
  <line x1="650" y1="200" x2="650" y2="300" stroke="#1f2a44" stroke-width="3" stroke-linecap="round"/>
  
  <line x1="250" y1="300" x2="225" y2="300" stroke="#1f2a44" stroke-width="3" stroke-linecap="round" marker-end="url(#arrowhead)"/>
  <line x1="500" y1="300" x2="575" y2="300" stroke="#1f2a44" stroke-width="3" stroke-linecap="round" marker-end="url(#arrowhead)"/>
</svg>