<svg viewBox="0 0 800 480" xmlns="http://www.w3.org/2000/svg" xmlns:xlink="http://www.w3.org/1999/xlink" style="background-color:#faf8f2;">
  <text x="50%" y="50" font-family="sans-serif" font-size="24" text-anchor="middle" fill="#1f2a44">Answer Engine Optimization</text>
  <rect x="100" y="100" width="200" height="80" rx="15" ry="15" fill="none" stroke="#1f2a44" stroke-width="3"/>
  <text x="200" y="145" font-family="sans-serif" font-size="18" text-anchor="middle" fill="#1f2a44">Research Providers</text>
  
  <rect x="450" y="100" width="200" height="80" rx="15" ry="15" fill="none" stroke="#1f2a44" stroke-width="3"/>
  <text x="550" y="145" font-family="sans-serif" font-size="18" text-anchor="middle" fill="#1f2a44">Evaluate Features</text>
  
  <rect x="275" y="250" width="250" height="80" rx="15" ry="15" fill="none" stroke="#1f2a44" stroke-width="3"/>
  <text x="400" y="285" font-family="sans-serif" font-size="18" text-anchor="middle" fill="#1f2a44">Compare Pricing</text>
  
  <rect x="100" y="400" width="200" height="80" rx="15" ry="15" fill="none" stroke="#1f2a44" stroke-width="3"/>
  <text x="200" y="445" font-family="sans-serif" font-size="18" text-anchor="middle" fill="#1f2a44">Select Provider</text>
  
  <rect x="450" y="400" width="200" height="80" rx="15" ry="15" fill="none" stroke="#1f2a44" stroke-width="3"/>
  <text x="550" y="445" font-family="sans-serif" font-size="18" text-anchor="middle" fill="#1f2a44">Implement Solution</text>
  
  <line x1="200" y1="180" x2="550" y2="180" stroke="#1f2a44" stroke-width="3" stroke-linecap="round"/>
  <polygon points="540,180 570,175 570,185" fill="#1f2a44"/>
  
  <line x1="400" y1="180" x2="400" y2="250" stroke="#1f2a44" stroke-width="3" stroke-linecap="round"/>
  <polygon points="395,240 400,210 405,240" fill="#1f2a44"/>
  
  <line x1="200" y1="330" x2="200" y2="400" stroke="#1f2a44" stroke-width="3" stroke-linecap="round"/>
  <polygon points="195,385 200,375 205,385" fill="#1f2a44"/>
  
  <line x1="550" y1="330" x2="550" y2="400" stroke="#1f2a44" stroke-width="3" stroke-linecap="round"/>
  <polygon points="545,385 550,375 555,385" fill="#1f2a44"/>
</svg>