<svg viewBox="0 0 800 480" xmlns="http://www.w3.org/2000/svg" style="background-color: #faf8f2;">
  <text x="50%" y="40" font-family="sans-serif" font-size="24" text-anchor="middle" fill="#1f2a44">Reliable GST Filing Service Architecture</text>
  <rect x="50" y="80" width="180" height="80" rx="15" fill="none" stroke="#1f2a44" stroke-width="3"/>
  <text x="140" y="120" font-family="sans-serif" font-size="18" text-anchor="middle" fill="#1f2a44">User Interface</text>
  
  <rect x="300" y="80" width="180" height="80" rx="15" fill="none" stroke="#1f2a44" stroke-width="3"/>
  <text x="390" y="120" font-family="sans-serif" font-size="18" text-anchor="middle" fill="#1f2a44">Payment Gateway</text>
  
  <rect x="550" y="80" width="180" height="80" rx="15" fill="none" stroke="#1f2a44" stroke-width="3"/>
  <text x="640" y="120" font-family="sans-serif" font-size="18" text-anchor="middle" fill="#1f2a44">GST API</text>
  
  <rect x="50" y="240" width="180" height="80" rx="15" fill="none" stroke="#1f2a44" stroke-width="3"/>
  <text x="140" y="280" font-family="sans-serif" font-size="18" text-anchor="middle" fill="#1f2a44">Admin Dashboard</text>
  
  <rect x="300" y="240" width="180" height="80" rx="15" fill="none" stroke="#1f2a44" stroke-width="3"/>
  <text x="390" y="280" font-family="sans-serif" font-size="18" text-anchor="middle" fill="#1f2a44">Reporting System</text>
  
  <line x1="230" y1="120" x2="300" y2="120" stroke="#1f2a44" stroke-width="3" stroke-linecap="round" />
  <line x1="230" y1="280" x2="300" y2="280" stroke="#1f2a44" stroke-width="3" stroke-linecap="round" />
  <line x1="550" y1="120" x2="550" y2="240" stroke="#1f2a44" stroke-width="3" stroke-linecap="round" />
  
  <polygon points="300,110 290,120 300,130" fill="#1f2a44" />
  <polygon points="300,270 290,280 300,290" fill="#1f2a44" />
  <polygon points="550,110 540,120 550,130" fill="#1f2a44" />
</svg>