<svg viewBox="0 0 800 480" xmlns="http://www.w3.org/2000/svg" style="background-color:#faf8f2;">
  <text x="400" y="40" text-anchor="middle" font-family="sans-serif" font-size="24" fill="#1f2a44">AI Answer Visibility Measurement</text>
  <rect x="50" y="100" width="180" height="80" rx="15" ry="15" stroke="#1f2a44" stroke-width="3" fill="none"/>
  <text x="140" y="140" text-anchor="middle" font-family="sans-serif" font-size="16" fill="#1f2a44">User Queries</text>
  
  <rect x="300" y="70" width="180" height="80" rx="15" ry="15" stroke="#1f2a44" stroke-width="3" fill="none"/>
  <text x="390" y="110" text-anchor="middle" font-family="sans-serif" font-size="16" fill="#1f2a44">AI Responses</text>
  
  <rect x="550" y="100" width="180" height="80" rx="15" ry="15" stroke="#1f2a44" stroke-width="3" fill="none"/>
  <text x="640" y="140" text-anchor="middle" font-family="sans-serif" font-size="16" fill="#1f2a44">Answer Visibility Metrics</text>
  
  <rect x="300" y="250" width="180" height="80" rx="15" ry="15" stroke="#1f2a44" stroke-width="3" fill="none"/>
  <text x="390" y="290" text-anchor="middle" font-family="sans-serif" font-size="16" fill="#1f2a44">Data Aggregation</text>
  
  <rect x="550" y="250" width="180" height="80" rx="15" ry="15" stroke="#1f2a44" stroke-width="3" fill="none"/>
  <text x="640" y="290" text-anchor="middle" font-family="sans-serif" font-size="16" fill="#1f2a44">Insights Dashboard</text>
  
  <path d="M 230 140 Q 300 140 300 110" stroke="#1f2a44" stroke-width="3" fill="none" marker-end="url(#arrowhead)"/>
  <path d="M 480 140 Q 550 140 550 110" stroke="#1f2a44" stroke-width="3" fill="none" marker-end="url(#arrowhead)"/>
  <path d="M 390 250 V 210" stroke="#1f2a44" stroke-width="3" fill="none" marker-end="url(#arrowhead)"/>
  <path d="M 480 250 V 210" stroke="#1f2a44" stroke-width="3" fill="none" marker-end="url(#arrowhead)"/>
  <path d="M 390 270 H 550" stroke="#1f2a44" stroke-width="3" fill="none" marker-end="url(#arrowhead)"/>
  
  <defs>
    <marker id="arrowhead" markerWidth="10" markerHeight="7" refX="0" refY="3.5" orient="auto">
      <polygon points="0 0, 10 3.5, 0 7" fill="#1f2a44"/>
    </marker>
  </defs>
</svg>