<svg viewBox="0 0 800 480" xmlns="http://www.w3.org/2000/svg" style="background-color: #faf8f2;">
  <text x="50%" y="40" text-anchor="middle" font-size="24" fill="#1f2a44" font-family="sans-serif">AI Answer Visibility Measurement</text>
  <g>
    <rect x="50" y="80" width="180" height="80" rx="15" ry="15" fill="none" stroke="#1f2a44" stroke-width="3"/>
    <text x="140" y="115" text-anchor="middle" font-size="16" fill="#1f2a44" font-family="sans-serif">User Interaction</text>
    
    <rect x="300" y="80" width="180" height="80" rx="15" ry="15" fill="none" stroke="#1f2a44" stroke-width="3"/>
    <text x="390" y="115" text-anchor="middle" font-size="16" fill="#1f2a44" font-family="sans-serif">Data Collection</text>
    
    <rect x="550" y="80" width="180" height="80" rx="15" ry="15" fill="none" stroke="#1f2a44" stroke-width="3"/>
    <text x="640" y="115" text-anchor="middle" font-size="16" fill="#1f2a44" font-family="sans-serif">Analytics Dashboard</text>
    
    <rect x="170" y="250" width="180" height="80" rx="15" ry="15" fill="none" stroke="#1f2a44" stroke-width="3"/>
    <text x="260" y="285" text-anchor="middle" font-size="16" fill="#1f2a44" font-family="sans-serif">Evaluate Metrics</text>
    
    <rect x="420" y="250" width="180" height="80" rx="15" ry="15" fill="none" stroke="#1f2a44" stroke-width="3"/>
    <text x="510" y="285" text-anchor="middle" font-size="16" fill="#1f2a44" font-family="sans-serif">Improve AI Responses</text>
  </g>
  
  <line x1="230" y1="120" x2="300" y2="120" stroke="#1f2a44" stroke-width="3" stroke-linecap="round"/>
  <line x1="480" y1="120" x2="550" y2="120" stroke="#1f2a44" stroke-width="3" stroke-linecap="round"/>
  <line x1="260" y1="180" x2="260" y2="250" stroke="#1f2a44" stroke-width="3" stroke-linecap="round"/>
  <line x1="510" y1="180" x2="510" y2="250" stroke="#1f2a44" stroke-width="3" stroke-linecap="round"/>
  
  <line x1="390" y1="180" x2="390" y2="250" stroke="#1f2a44" stroke-width="3" stroke-linecap="round"/>
  <line x1="640" y1="180" x2="640" y2="250" stroke="#1f2a44" stroke-width="3" stroke-linecap="round"/>
</svg>