<svg xmlns="http://www.w3.org/2000/svg" viewBox="0 0 800 480" style="background-color:#faf8f2;">
  <text x="400" y="40" font-size="28" text-anchor="middle" fill="#1f2a44" font-family="sans-serif">Tool for Measuring AI Answer Visibility</text>
  <rect x="100" y="100" width="200" height="100" rx="15" ry="15" style="fill:white;stroke:#1f2a44;stroke-width:3;">
    <title>Data Source</title>
  </rect>
  <text x="200" y="150" font-size="18" text-anchor="middle" fill="#1f2a44" font-family="sans-serif">Data Source</text>
  <rect x="300" y="200" width="200" height="100" rx="15" ry="15" style="fill:white;stroke:#1f2a44;stroke-width:3;">
    <title>Processing Engine</title>
  </rect>
  <text x="400" y="250" font-size="18" text-anchor="middle" fill="#1f2a44" font-family="sans-serif">Processing Engine</text>
  <rect x="500" y="100" width="200" height="100" rx="15" ry="15" style="fill:white;stroke:#1f2a44;stroke-width:3;">
    <title>Visibility Metrics</title>
  </rect>
  <text x="600" y="150" font-size="18" text-anchor="middle" fill="#1f2a44" font-family="sans-serif">Visibility Metrics</text>
  <rect x="300" y="350" width="200" height="100" rx="15" ry="15" style="fill:white;stroke:#1f2a44;stroke-width:3;">
    <title>Visualization Dashboard</title>
  </rect>
  <text x="400" y="400" font-size="18" text-anchor="middle" fill="#1f2a44" font-family="sans-serif">Visualization Dashboard</text>
  <rect x="100" y="350" width="200" height="100" rx="15" ry="15" style="fill:white;stroke:#1f2a44;stroke-width:3;">
    <title>User Insights</title>
  </rect>
  <text x="200" y="400" font-size="18" text-anchor="middle" fill="#1f2a44" font-family="sans-serif">User Insights</text>
  
  <path d="M 300 150 Q 350 175 300 200" style="fill: none; stroke:#1f2a44; stroke-width:3; stroke-linecap:round;"/>
  <path d="M 400 200 Q 450 225 400 250" style="fill: none; stroke:#1f2a44; stroke-width:3; stroke-linecap:round;"/>
  <path d="M 600 150 Q 550 175 600 200" style="fill: none; stroke:#1f2a44; stroke-width:3; stroke-linecap:round;"/>
  <path d="M 400 300 Q 350 325 400 350" style="fill: none; stroke:#1f2a44; stroke-width:3; stroke-linecap:round;"/>
  <path d="M 300 400 Q 250 375 300 350" style="fill: none; stroke:#1f2a44; stroke-width:3; stroke-linecap:round;"/>
</svg>