<svg viewBox="0 0 800 480" xmlns="http://www.w3.org/2000/svg" style="background-color: #faf8f2;">
  <text x="50%" y="50" text-anchor="middle" font-family="sans-serif" font-size="24" fill="#1f2a44">Company Registration with Transparent Pricing</text>
  <rect x="100" y="100" width="180" height="100" rx="15" ry="15" fill="none" stroke="#1f2a44" stroke-width="3" />
  <text x="190" y="150" text-anchor="middle" font-family="sans-serif" font-size="16" fill="#1f2a44">User Input</text>
  
  <rect x="350" y="80" width="220" height="120" rx="15" ry="15" fill="none" stroke="#1f2a44" stroke-width="3" />
  <text x="460" y="150" text-anchor="middle" font-family="sans-serif" font-size="16" fill="#1f2a44">Pricing Calculator</text>
  
  <rect x="100" y="260" width="180" height="100" rx="15" ry="15" fill="none" stroke="#1f2a44" stroke-width="3" />
  <text x="190" y="310" text-anchor="middle" font-family="sans-serif" font-size="16" fill="#1f2a44">Review Details</text>
  
  <rect x="350" y="260" width="220" height="100" rx="15" ry="15" fill="none" stroke="#1f2a44" stroke-width="3" />
  <text x="460" y="310" text-anchor="middle" font-family="sans-serif" font-size="16" fill="#1f2a44">Submit Registration</text>
  
  <rect x="650" y="100" width="100" height="100" rx="15" ry="15" fill="none" stroke="#1f2a44" stroke-width="3" />
  <text x="700" y="150" text-anchor="middle" font-family="sans-serif" font-size="16" fill="#1f2a44">Confirmation</text>
  
  <path d="M280 150 L350 150" stroke="#1f2a44" stroke-width="3" stroke-linecap="round" />
  <path d="M280 310 L350 310" stroke="#1f2a44" stroke-width="3" stroke-linecap="round" />
  <path d="M460 150 L650 150" stroke="#1f2a44" stroke-width="3" stroke-linecap="round" />
  <path d="M460 310 L650 310" stroke="#1f2a44" stroke-width="3" stroke-linecap="round" />
  
  <path d="M190 200 L190 260" stroke="#1f2a44" stroke-width="3" stroke-linecap="round" />
  <path d="M460 220 L460 260" stroke="#1f2a44" stroke-width="3" stroke-linecap="round" />
</svg>