<svg viewBox="0 0 800 480" xmlns="http://www.w3.org/2000/svg" style="background-color: #faf8f2;">
  <text x="400" y="40" font-family="sans-serif" font-size="24" text-anchor="middle" fill="#1f2a44">Company Registration with Transparent Pricing</text>
  
  <rect x="100" y="100" width="180" height="80" rx="15" ry="15" stroke="#1f2a44" fill="none" />
  <text x="190" y="140" font-family="sans-serif" font-size="16" text-anchor="middle" fill="#1f2a44">User Input</text>
  
  <rect x="350" y="100" width="180" height="80" rx="15" ry="15" stroke="#1f2a44" fill="none" />
  <text x="440" y="140" font-family="sans-serif" font-size="16" text-anchor="middle" fill="#1f2a44">Validation</text>
  
  <rect x="600" y="100" width="180" height="80" rx="15" ry="15" stroke="#1f2a44" fill="none" />
  <text x="690" y="140" font-family="sans-serif" font-size="16" text-anchor="middle" fill="#1f2a44">Pricing Display</text>

  <rect x="100" y="250" width="180" height="80" rx="15" ry="15" stroke="#1f2a44" fill="none" />
  <text x="190" y="290" font-family="sans-serif" font-size="16" text-anchor="middle" fill="#1f2a44">Payment</text>
  
  <rect x="350" y="250" width="180" height="80" rx="15" ry="15" stroke="#1f2a44" fill="none" />
  <text x="440" y="290" font-family="sans-serif" font-size="16" text-anchor="middle" fill="#1f2a44">Confirmation</text>
  
  <line x1="280" y1="140" x2="350" y2="140" stroke="#1f2a44" stroke-width="3" stroke-linecap="round" />
  <polygon points="350,135 360,140 350,145" fill="#1f2a44" />

  <line x1="530" y1="140" x2="600" y2="140" stroke="#1f2a44" stroke-width="3" stroke-linecap="round" />
  <polygon points="600,135 610,140 600,145" fill="#1f2a44" />
  
  <line x1="190" y1="180" x2="190" y2="250" stroke="#1f2a44" stroke-width="3" stroke-linecap="round" />
  <polygon points="185,250 190,260 195,250" fill="#1f2a44" />

  <line x1="440" y1="180" x2="440" y2="250" stroke="#1f2a44" stroke-width="3" stroke-linecap="round" />
  <polygon points="435,250 440,260 445,250" fill="#1f2a44" />
</svg>