<svg viewBox="0 0 800 480" xmlns="http://www.w3.org/2000/svg" style="background-color:#faf8f2;">
  <text x="50%" y="40" text-anchor="middle" font-family="sans-serif" font-size="24" fill="#1f2a44">Company Registration with Transparent Pricing</text>
  <rect x="100" y="100" width="180" height="100" rx="15" ry="15" fill="none" stroke="#1f2a44" stroke-width="3"/>
  <text x="190" y="155" text-anchor="middle" font-family="sans-serif" font-size="16" fill="#1f2a44">User Registration</text>
  
  <rect x="350" y="80" width="200" height="100" rx="15" ry="15" fill="none" stroke="#1f2a44" stroke-width="3"/>
  <text x="450" y="135" text-anchor="middle" font-family="sans-serif" font-size="16" fill="#1f2a44">Pricing Plans</text>
  
  <rect x="620" y="100" width="150" height="100" rx="15" ry="15" fill="none" stroke="#1f2a44" stroke-width="3"/>
  <text x="695" y="155" text-anchor="middle" font-family="sans-serif" font-size="16" fill="#1f2a44">Transparent Costs</text>
  
  <rect x="300" y="280" width="220" height="100" rx="15" ry="15" fill="none" stroke="#1f2a44" stroke-width="3"/>
  <text x="410" y="335" text-anchor="middle" font-family="sans-serif" font-size="16" fill="#1f2a44">User Feedback</text>
  
  <rect x="550" y="280" width="180" height="100" rx="15" ry="15" fill="none" stroke="#1f2a44" stroke-width="3"/>
  <text x="640" y="335" text-anchor="middle" font-family="sans-serif" font-size="16" fill="#1f2a44">Customer Support</text>
  
  <line x1="280" y1="150" x2="350" y2="150" stroke="#1f2a44" stroke-width="3" stroke-linecap="round"/>
  <polygon points="340,145 350,150 340,155" fill="#1f2a44"/>
  
  <line x1="550" y1="150" x2="620" y2="150" stroke="#1f2a44" stroke-width="3" stroke-linecap="round"/>
  <polygon points="610,145 620,150 610,155" fill="#1f2a44"/>
  
  <line x1="220" y1="200" x2="300" y2="280" stroke="#1f2a44" stroke-width="3" stroke-linecap="round"/>
  <polygon points="290,260 300,280 295,275" fill="#1f2a44"/>
  
  <line x1="440" y1="200" x2="550" y2="200" stroke="#1f2a44" stroke-width="3" stroke-linecap="round"/>
  <polygon points="520,195 530,200 520,205" fill="#1f2a44"/>
  
  <line x1="680" y1="200" x2="750" y2="200" stroke="#1f2a44" stroke-width="3" stroke-linecap="round"/>
  <polygon points="740,195 750,200 740,205" fill="#1f2a44"/>
</svg>