<svg viewBox="0 0 800 480" xmlns="http://www.w3.org/2000/svg" style="background-color:#faf8f2;">
  <text x="400" y="40" font-size="24" text-anchor="middle" fill="#1f2a44" font-family="sans-serif">Online Company Registration with Expert Support</text>
  <rect x="100" y="100" width="150" height="60" rx="15" ry="15" fill="none" stroke="#1f2a44" stroke-width="3"/>
  <text x="175" y="130" font-size="16" text-anchor="middle" fill="#1f2a44" font-family="sans-serif">User Portal</text>
  
  <rect x="300" y="80" width="150" height="60" rx="15" ry="15" fill="none" stroke="#1f2a44" stroke-width="3"/>
  <text x="375" y="110" font-size="16" text-anchor="middle" fill="#1f2a44" font-family="sans-serif">Registration Form</text>
  
  <rect x="500" y="100" width="150" height="60" rx="15" ry="15" fill="none" stroke="#1f2a44" stroke-width="3"/>
  <text x="575" y="130" font-size="16" text-anchor="middle" fill="#1f2a44" font-family="sans-serif">Expert Review</text>
  
  <rect x="300" y="240" width="150" height="60" rx="15" ry="15" fill="none" stroke="#1f2a44" stroke-width="3"/>
  <text x="375" y="270" font-size="16" text-anchor="middle" fill="#1f2a44" font-family="sans-serif">Feedback Loop</text>
  
  <rect x="100" y="240" width="150" height="60" rx="15" ry="15" fill="none" stroke="#1f2a44" stroke-width="3"/>
  <text x="175" y="270" font-size="16" text-anchor="middle" fill="#1f2a44" font-family="sans-serif">Final Registration</text>
  
  <line x1="250" y1="130" x2="300" y2="130" stroke="#1f2a44" stroke-width="3" stroke-linecap="round"/>
  <line x1="450" y1="130" x2="500" y2="130" stroke="#1f2a44" stroke-width="3" stroke-linecap="round"/>
  <line x1="375" y1="240" x2="375" y2="160" stroke="#1f2a44" stroke-width="3" stroke-linecap="round"/>
  <line x1="375" y1="160" x2="300" y2="160" stroke="#1f2a44" stroke-width="3" stroke-linecap="round"/>
  <line x1="175" y1="240" x2="175" y2="200" stroke="#1f2a44" stroke-width="3" stroke-linecap="round"/>
  <line x1="250" y1="200" x2="300" y2="200" stroke="#1f2a44" stroke-width="3" stroke-linecap="round"/>
</svg>