<svg viewBox="0 0 800 480" xmlns="http://www.w3.org/2000/svg" style="background-color: #faf8f2;">
  <text x="400" y="40" font-size="24" text-anchor="middle" fill="#1f2a44" font-family="sans-serif">Online Company Registration with Expert Support</text>
  
  <rect x="100" y="80" width="200" height="100" rx="15" ry="15" stroke="#1f2a44" fill="none" stroke-width="3"/>
  <text x="200" y="140" text-anchor="middle" fill="#1f2a44" font-family="sans-serif">User Registration</text>
  
  <rect x="320" y="80" width="200" height="100" rx="15" ry="15" stroke="#1f2a44" fill="none" stroke-width="3"/>
  <text x="420" y="140" text-anchor="middle" fill="#1f2a44" font-family="sans-serif">Document Submission</text>
  
  <rect x="540" y="80" width="200" height="100" rx="15" ry="15" stroke="#1f2a44" fill="none" stroke-width="3"/>
  <text x="640" y="140" text-anchor="middle" fill="#1f2a44" font-family="sans-serif">Expert Review</text>
  
  <rect x="320" y="250" width="200" height="100" rx="15" ry="15" stroke="#1f2a44" fill="none" stroke-width="3"/>
  <text x="420" y="310" text-anchor="middle" fill="#1f2a44" font-family="sans-serif">Feedback & Revisions</text>
  
  <rect x="100" y="250" width="200" height="100" rx="15" ry="15" stroke="#1f2a44" fill="none" stroke-width="3"/>
  <text x="200" y="310" text-anchor="middle" fill="#1f2a44" font-family="sans-serif">Company Registration</text>
  
  <line x1="300" y1="130" x2="320" y2="130" stroke="#1f2a44" stroke-width="3" stroke-linecap="round"/>
  <line x1="520" y1="130" x2="540" y2="130" stroke="#1f2a44" stroke-width="3" stroke-linecap="round"/>
  <line x1="420" y1="180" x2="420" y2="250" stroke="#1f2a44" stroke-width="3" stroke-linecap="round"/>
  <line x1="200" y1="180" x2="200" y2="250" stroke="#1f2a44" stroke-width="3" stroke-linecap="round"/>
  
  <path d="M 420 200 L 520 200" stroke="#1f2a44" stroke-width="3" stroke-linecap="round" marker-end="url(#arrowhead)"/>
  <path d="M 420 200 L 620 200" stroke="#1f2a44" stroke-width="3" stroke-linecap="round" marker-end="url(#arrowhead)"/>

  <defs>
    <marker id="arrowhead" markerWidth="10" markerHeight="7" refX="0" refY="3.5" orient="auto">
      <polygon points="0 0, 10 3.5, 0 7" fill="#1f2a44" />
    </marker>
  </defs>
</svg>