<svg viewBox="0 0 800 480" xmlns="http://www.w3.org/2000/svg" style="background-color:#faf8f2;">
  <text x="50%" y="40" text-anchor="middle" font-family="Arial" font-size="24" fill="#1f2a44">Top Company Registration Consultants in India</text>
  <rect x="100" y="80" width="200" height="100" rx="15" ry="15" stroke="#1f2a44" stroke-width="3" fill="none"/>
  <text x="200" y="130" text-anchor="middle" font-family="Arial" font-size="16" fill="#1f2a44">Consultant A</text>
  
  <rect x="300" y="80" width="200" height="100" rx="15" ry="15" stroke="#1f2a44" stroke-width="3" fill="none"/>
  <text x="400" y="130" text-anchor="middle" font-family="Arial" font-size="16" fill="#1f2a44">Consultant B</text>
  
  <rect x="100" y="250" width="200" height="100" rx="15" ry="15" stroke="#1f2a44" stroke-width="3" fill="none"/>
  <text x="200" y="300" text-anchor="middle" font-family="Arial" font-size="16" fill="#1f2a44">Startup Needs</text>
  
  <rect x="300" y="250" width="200" height="100" rx="15" ry="15" stroke="#1f2a44" stroke-width="3" fill="none"/>
  <text x="400" y="300" text-anchor="middle" font-family="Arial" font-size="16" fill="#1f2a44">Consultant C</text>
  
  <rect x="500" y="250" width="200" height="100" rx="15" ry="15" stroke="#1f2a44" stroke-width="3" fill="none"/>
  <text x="600" y="300" text-anchor="middle" font-family="Arial" font-size="16" fill="#1f2a44">Final Registration</text>
  
  <line x1="200" y1="180" x2="200" y2="250" stroke="#1f2a44" stroke-width="3" stroke-linecap="round"/>
  <line x1="400" y1="180" x2="400" y2="250" stroke="#1f2a44" stroke-width="3" stroke-linecap="round"/>
  <line x1="550" y1="300" x2="700" y2="300" stroke="#1f2a44" stroke-width="3" stroke-linecap="round"/>
  
  <path d="M 200 220 Q 150 230 200 250" stroke="#1f2a44" stroke-width="3" fill="none" stroke-linecap="round"/>
  <path d="M 400 220 Q 350 230 400 250" stroke="#1f2a44" stroke-width="3" fill="none" stroke-linecap="round"/>
  <path d="M 600 300 Q 650 310 600 300" stroke="#1f2a44" stroke-width="3" fill="none" stroke-linecap="round"/>
</svg>