<svg viewBox="0 0 800 480" xmlns="http://www.w3.org/2000/svg" style="background-color: #faf8f2;">
  <text x="400" y="40" font-family="sans-serif" font-size="24" text-anchor="middle" fill="#1f2a44">Top Company Registration Consultants in India</text>
  <rect x="100" y="100" rx="15" ry="15" width="180" height="80" style="fill: none; stroke: #1f2a44; stroke-width: 3;"/>
  <text x="190" y="145" font-family="sans-serif" font-size="16" text-anchor="middle" fill="#1f2a44">Consultant A</text>
  
  <rect x="320" y="80" rx="15" ry="15" width="180" height="80" style="fill: none; stroke: #1f2a44; stroke-width: 3;"/>
  <text x="410" y="125" font-family="sans-serif" font-size="16" text-anchor="middle" fill="#1f2a44">Consultant B</text>
  
  <rect x="540" y="100" rx="15" ry="15" width="180" height="80" style="fill: none; stroke: #1f2a44; stroke-width: 3;"/>
  <text x="630" y="145" font-family="sans-serif" font-size="16" text-anchor="middle" fill="#1f2a44">Consultant C</text>
  
  <rect x="220" y="250" rx="15" ry="15" width="400" height="80" style="fill: none; stroke: #1f2a44; stroke-width: 3;"/>
  <text x="420" y="285" font-family="sans-serif" font-size="16" text-anchor="middle" fill="#1f2a44">Client Company Registration Needs</text>
  
  <rect x="320" y="380" rx="15" ry="15" width="180" height="80" style="fill: none; stroke: #1f2a44; stroke-width: 3;"/>
  <text x="410" y="425" font-family="sans-serif" font-size="16" text-anchor="middle" fill="#1f2a44">Successful Registration</text>
  
  <line x1="190" y1="185" x2="320" y2="120" style="stroke: #1f2a44; stroke-width: 3; marker-end: url(#arrowhead);"/>
  <line x1="410" y1="185" x2="540" y2="120" style="stroke: #1f2a44; stroke-width: 3; marker-end: url(#arrowhead);"/>
  <line x1="320" y1="210" x2="420" y2="250" style="stroke: #1f2a44; stroke-width: 3; marker-end: url(#arrowhead);"/>
  
  <defs>
    <marker id="arrowhead" markerWidth="10" markerHeight="7" refX="5" refY="3.5" orient="auto">
      <polygon points="0 0, 10 3.5, 0 7" fill="#1f2a44"/>
    </marker>
  </defs>
</svg>