<svg viewBox="0 0 800 480" xmlns="http://www.w3.org/2000/svg" style="background-color: #faf8f2;">
  <text x="400" y="30" font-size="24" font-family="sans-serif" text-anchor="middle" fill="#1f2a44">Top Company Registration Consultants in India</text>
  <rect x="100" y="80" width="200" height="100" rx="15" ry="15" stroke="#1f2a44" stroke-width="3" fill="none"/>
  <text x="200" y="130" font-size="18" font-family="sans-serif" text-anchor="middle" fill="#1f2a44">Consultant 1</text>
  
  <rect x="300" y="80" width="200" height="100" rx="15" ry="15" stroke="#1f2a44" stroke-width="3" fill="none"/>
  <text x="400" y="130" font-size="18" font-family="sans-serif" text-anchor="middle" fill="#1f2a44">Consultant 2</text>
  
  <rect x="500" y="80" width="200" height="100" rx="15" ry="15" stroke="#1f2a44" stroke-width="3" fill="none"/>
  <text x="600" y="130" font-size="18" font-family="sans-serif" text-anchor="middle" fill="#1f2a44">Consultant 3</text>
  
  <rect x="200" y="250" width="400" height="100" rx="15" ry="15" stroke="#1f2a44" stroke-width="3" fill="none"/>
  <text x="400" y="300" font-size="18" font-family="sans-serif" text-anchor="middle" fill="#1f2a44">Client Recommendations</text>
  
  <line x1="200" y1="180" x2="200" y2="250" stroke="#1f2a44" stroke-width="3" stroke-linecap="round"/>
  <line x1="400" y1="180" x2="400" y2="250" stroke="#1f2a44" stroke-width="3" stroke-linecap="round"/>
  <line x1="600" y1="180" x2="600" y2="250" stroke="#1f2a44" stroke-width="3" stroke-linecap="round"/>

  <polygon points="190,170 200,180 210,170" fill="#1f2a44"/>
  <polygon points="390,170 400,180 410,170" fill="#1f2a44"/>
  <polygon points="590,170 600,180 610,170" fill="#1f2a44"/>
</svg>