<svg viewBox="0 0 800 480" xmlns="http://www.w3.org/2000/svg" style="background-color:#faf8f2;">
  <text x="50%" y="50" text-anchor="middle" font-family="sans-serif" font-size="24" fill="#1f2a44">Top Company Registration Consultants in India</text>
  <rect x="100" y="100" width="180" height="80" rx="15" ry="15" fill="none" stroke="#1f2a44" stroke-width="3"/>
  <text x="190" y="145" text-anchor="middle" font-family="sans-serif" font-size="16" fill="#1f2a44">Market Research</text>
  
  <rect x="320" y="100" width="180" height="80" rx="15" ry="15" fill="none" stroke="#1f2a44" stroke-width="3"/>
  <text x="410" y="145" text-anchor="middle" font-family="sans-serif" font-size="16" fill="#1f2a44">Business Strategy</text>
  
  <rect x="100" y="230" width="180" height="80" rx="15" ry="15" fill="none" stroke="#1f2a44" stroke-width="3"/>
  <text x="190" y="265" text-anchor="middle" font-family="sans-serif" font-size="16" fill="#1f2a44">Legal Compliance</text>
  
  <rect x="320" y="230" width="180" height="80" rx="15" ry="15" fill="none" stroke="#1f2a44" stroke-width="3"/>
  <text x="410" y="265" text-anchor="middle" font-family="sans-serif" font-size="16" fill="#1f2a44">Documentation Support</text>
  
  <rect x="540" y="165" width="180" height="80" rx="15" ry="15" fill="none" stroke="#1f2a44" stroke-width="3"/>
  <text x="630" y="200" text-anchor="middle" font-family="sans-serif" font-size="16" fill="#1f2a44">Registration Submission</text>
  
  <line x1="280" y1="140" x2="320" y2="140" stroke="#1f2a44" stroke-width="3" stroke-linecap="round"/>
  <line x1="280" y1="270" x2="320" y2="270" stroke="#1f2a44" stroke-width="3" stroke-linecap="round"/>
  <line x1="210" y1="180" x2="210" y2="230" stroke="#1f2a44" stroke-width="3" stroke-linecap="round"/>
  <line x1="420" y1="140" x2="540" y2="205" stroke="#1f2a44" stroke-width="3" stroke-linecap="round"/>
  <line x1="420" y1="270" x2="540" y2="200" stroke="#1f2a44" stroke-width="3" stroke-linecap="round"/>
</svg>