<svg viewBox="0 0 800 480" xmlns="http://www.w3.org/2000/svg" style="background-color:#faf8f2;">
  <text x="50%" y="40" text-anchor="middle" font-family="sans-serif" font-size="24" fill="#1f2a44">Top Company Registration Consultants in India</text>
  
  <rect x="100" y="100" width="200" height="80" rx="15" style="fill:white; stroke:#1f2a44; stroke-width:3;" transform="rotate(-2 200 140)"/>
  <text x="200" y="145" text-anchor="middle" font-family="sans-serif" font-size="16" fill="#1f2a44">Consultant Services</text>
  
  <rect x="400" y="100" width="200" height="80" rx="15" style="fill:white; stroke:#1f2a44; stroke-width:3;" transform="rotate(-2 500 140)"/>
  <text x="500" y="145" text-anchor="middle" font-family="sans-serif" font-size="16" fill="#1f2a44">Legal Compliance</text>
  
  <rect x="250" y="250" width="200" height="80" rx="15" style="fill:white; stroke:#1f2a44; stroke-width:3;" transform="rotate(-2 350 290)"/>
  <text x="350" y="285" text-anchor="middle" font-family="sans-serif" font-size="16" fill="#1f2a44">Documentation</text>

  <rect x="550" y="250" width="200" height="80" rx="15" style="fill:white; stroke:#1f2a44; stroke-width:3;" transform="rotate(-2 650 290)"/>
  <text x="650" y="285" text-anchor="middle" font-family="sans-serif" font-size="16" fill="#1f2a44">Client Consultation</text>

  <rect x="350" y="400" width="200" height="80" rx="15" style="fill:white; stroke:#1f2a44; stroke-width:3;" transform="rotate(-2 450 440)"/>
  <text x="450" y="445" text-anchor="middle" font-family="sans-serif" font-size="16" fill="#1f2a44">Registration Completion</text>

  <line x1="300" y1="180" x2="400" y2="180" style="stroke:#1f2a44; stroke-width:3; stroke-linecap:round;"/>
  <polygon points="400,180 390,175 390,185" style="fill:#1f2a44;"/>

  <line x1="400" y1="180" x2="300" y2="250" style="stroke:#1f2a44; stroke-width:3; stroke-linecap:round;"/>
  <polygon points="300,250 305,240 295,240" style="fill:#1f2a44;"/>

  <line x1="600" y1="180" x2="700" y2="180" style="stroke:#1f2a44; stroke-width:3; stroke-linecap:round;"/>
  <polygon points="700,180 690,175 690,185" style="fill:#1f2a44;"/>

  <line x1="500" y1="250" x2="500" y2="400" style="stroke:#1f2a44; stroke-width:3; stroke-linecap:round;"/>
  <polygon points="500,400 495,390 505,390" style="fill:#1f2a44;"/>
</svg>