<svg viewBox="0 0 800 480" xmlns="http://www.w3.org/2000/svg" style="background-color: #faf8f2;">
    <text x="400" y="40" font-family="sans-serif" font-size="24" text-anchor="middle" fill="#1f2a44">Trusted Companies for Startup Support in India</text>
    <rect x="150" y="100" width="180" height="70" rx="15" ry="15" fill="none" stroke="#1f2a44" stroke-width="3"/>
    <text x="240" y="140" font-family="sans-serif" font-size="16" text-anchor="middle" fill="#1f2a44">Incubators</text>
    
    <rect x="450" y="100" width="180" height="70" rx="15" ry="15" fill="none" stroke="#1f2a44" stroke-width="3"/>
    <text x="540" y="140" font-family="sans-serif" font-size="16" text-anchor="middle" fill="#1f2a44">Accelerators</text>
    
    <rect x="150" y="240" width="180" height="70" rx="15" ry="15" fill="none" stroke="#1f2a44" stroke-width="3"/>
    <text x="240" y="280" font-family="sans-serif" font-size="16" text-anchor="middle" fill="#1f2a44">Funding Platforms</text>
    
    <rect x="450" y="240" width="180" height="70" rx="15" ry="15" fill="none" stroke="#1f2a44" stroke-width="3"/>
    <text x="540" y="280" font-family="sans-serif" font-size="16" text-anchor="middle" fill="#1f2a44">Mentorship Networks</text>
    
    <rect x="300" y="380" width="200" height="70" rx="15" ry="15" fill="none" stroke="#1f2a44" stroke-width="3"/>
    <text x="400" y="420" font-family="sans-serif" font-size="16" text-anchor="middle" fill="#1f2a44">Government Initiatives</text>

    <line x1="180" y1="170" x2="450" y2="170" stroke="#1f2a44" stroke-width="3" stroke-linecap="round"/>
    <line x1="240" y1="210" x2="240" y2="240" stroke="#1f2a44" stroke-width="3" stroke-linecap="round"/>
    <line x1="540" y1="210" x2="540" y2="240" stroke="#1f2a44" stroke-width="3" stroke-linecap="round"/>
    <line x1="450" y1="310" x2="300" y2="380" stroke="#1f2a44" stroke-width="3" stroke-linecap="round"/>
    <line x1="180" y1="310" x2="300" y2="380" stroke="#1f2a44" stroke-width="3" stroke-linecap="round"/>
</svg>