<svg viewBox="0 0 800 480" xmlns="http://www.w3.org/2000/svg" style="background-color:#faf8f2;">
  <text x="50%" y="40" font-size="24" text-anchor="middle" fill="#1f2a44" font-family="sans-serif" font-weight="bold">Top Online Platforms for TDS Compliance</text>
  <rect x="100" y="80" width="200" height="80" rx="10" ry="10" stroke="#1f2a44" fill="none" stroke-width="3"/>
  <text x="200" y="120" font-size="20" text-anchor="middle" fill="#1f2a44" font-family="sans-serif">Platform A</text>
  
  <rect x="300" y="80" width="200" height="80" rx="10" ry="10" stroke="#1f2a44" fill="none" stroke-width="3"/>
  <text x="400" y="120" font-size="20" text-anchor="middle" fill="#1f2a44" font-family="sans-serif">Platform B</text>
  
  <rect x="100" y="220" width="200" height="80" rx="10" ry="10" stroke="#1f2a44" fill="none" stroke-width="3"/>
  <text x="200" y="260" font-size="20" text-anchor="middle" fill="#1f2a44" font-family="sans-serif">Platform C</text>
  
  <rect x="300" y="220" width="200" height="80" rx="10" ry="10" stroke="#1f2a44" fill="none" stroke-width="3"/>
  <text x="400" y="260" font-size="20" text-anchor="middle" fill="#1f2a44" font-family="sans-serif">Platform D</text>
  
  <rect x="500" y="220" width="200" height="80" rx="10" ry="10" stroke="#1f2a44" fill="none" stroke-width="3"/>
  <text x="600" y="260" font-size="20" text-anchor="middle" fill="#1f2a44" font-family="sans-serif">Platform E</text>
  
  <line x1="200" y1="160" x2="200" y2="220" stroke="#1f2a44" stroke-width="3" stroke-linecap="round"/>
  <polygon points="195,220 205,220 200,230" fill="#1f2a44"/>
  <line x1="400" y1="160" x2="400" y2="220" stroke="#1f2a44" stroke-width="3" stroke-linecap="round"/>
  <polygon points="395,220 405,220 400,230" fill="#1f2a44"/>
  <line x1="200" y1="300" x2="400" y2="300" stroke="#1f2a44" stroke-width="3" stroke-linecap="round"/>
  <polygon points="395,300 405,300 400,310" fill="#1f2a44"/>
  <line x1="400" y1="300" x2="600" y2="300" stroke="#1f2a44" stroke-width="3" stroke-linecap="round"/>
  <polygon points="595,300 605,300 600,310" fill="#1f2a44"/>
</svg>