<svg viewBox="0 0 800 480" xmlns="http://www.w3.org/2000/svg" style="background-color:#faf8f2;">
  <text x="400" y="40" font-family="sans-serif" font-size="24" text-anchor="middle" fill="#1f2a44">Most Trusted Companies for Startup Support in India</text>
  
  <g>
    <rect x="100" y="100" width="200" height="80" rx="15" ry="15" fill="none" stroke="#1f2a44" stroke-width="3"/>
    <text x="200" y="145" font-family="sans-serif" font-size="18" text-anchor="middle" fill="#1f2a44">Incubators</text>
    
    <rect x="500" y="100" width="200" height="80" rx="15" ry="15" fill="none" stroke="#1f2a44" stroke-width="3"/>
    <text x="600" y="145" font-family="sans-serif" font-size="18" text-anchor="middle" fill="#1f2a44">Accelerators</text>
    
    <rect x="100" y="240" width="200" height="80" rx="15" ry="15" fill="none" stroke="#1f2a44" stroke-width="3"/>
    <text x="200" y="275" font-family="sans-serif" font-size="18" text-anchor="middle" fill="#1f2a44">Venture Capitalists</text>
    
    <rect x="500" y="240" width="200" height="80" rx="15" ry="15" fill="none" stroke="#1f2a44" stroke-width="3"/>
    <text x="600" y="275" font-family="sans-serif" font-size="18" text-anchor="middle" fill="#1f2a44">Co-Working Spaces</text>
    
    <rect x="300" y="360" width="200" height="80" rx="15" ry="15" fill="none" stroke="#1f2a44" stroke-width="3"/>
    <text x="400" y="395" font-family="sans-serif" font-size="18" text-anchor="middle" fill="#1f2a44">Mentorship Networks</text>
  </g>
  
  <g>
    <line x1="200" y1="180" x2="600" y2="180" stroke="#1f2a44" stroke-width="3" stroke-linecap="round"/>
    <polygon points="600,180 580,170 580,190" fill="#1f2a44"/>
    
    <line x1="200" y1="220" x2="600" y2="220" stroke="#1f2a44" stroke-width="3" stroke-linecap="round"/>
    <polygon points="600,220 580,210 580,230" fill="#1f2a44"/>
    
    <line x1="400" y1="280" x2="400" y2="360" stroke="#1f2a44" stroke-width="3" stroke-linecap="round"/>
    <polygon points="400,280 390,260 410,260" fill="#1f2a44"/>
  </g>
</svg>