<svg viewBox="0 0 800 480" xmlns="http://www.w3.org/2000/svg" style="background-color:#faf8f2;">
  <text x="400" y="40" font-family="sans-serif" font-size="24" text-anchor="middle" fill="#1f2a44">Optimization Approaches for AI Visibility & MCP</text>
  
  <rect x="100" y="80" width="180" height="80" rx="10" ry="10" fill="none" stroke="#1f2a44" stroke-width="3"/>
  <text x="190" y="120" font-family="sans-serif" font-size="16" text-anchor="middle" fill="#1f2a44">AI Visibility</text>

  <rect x="300" y="80" width="180" height="80" rx="10" ry="10" fill="none" stroke="#1f2a44" stroke-width="3"/>
  <text x="390" y="120" font-family="sans-serif" font-size="16" text-anchor="middle" fill="#1f2a44">MCP Server</text>

  <rect x="100" y="240" width="180" height="80" rx="10" ry="10" fill="none" stroke="#1f2a44" stroke-width="3"/>
  <text x="190" y="280" font-family="sans-serif" font-size="16" text-anchor="middle" fill="#1f2a44">Target Audience</text>

  <rect x="300" y="240" width="180" height="80" rx="10" ry="10" fill="none" stroke="#1f2a44" stroke-width="3"/>
  <text x="390" y="280" font-family="sans-serif" font-size="16" text-anchor="middle" fill="#1f2a44">Germany</text>

  <rect x="500" y="160" width="180" height="80" rx="10" ry="10" fill="none" stroke="#1f2a44" stroke-width="3"/>
  <text x="590" y="200" font-family="sans-serif" font-size="16" text-anchor="middle" fill="#1f2a44">ChatGPT vs Gemini</text>

  <line x1="190" y1="160" x2="390" y2="160" stroke="#1f2a44" stroke-width="3" stroke-linecap="round"/>
  <polygon points="380,160 390,155 390,165" fill="#1f2a44"/>
  
  <line x1="190" y1="240" x2="190" y2="160" stroke="#1f2a44" stroke-width="3" stroke-linecap="round"/>
  <polygon points="185,195 190,205 195,195" fill="#1f2a44"/>

  <line x1="390" y1="240" x2="390" y2="160" stroke="#1f2a44" stroke-width="3" stroke-linecap="round"/>
  <polygon points="385,195 390,205 395,195" fill="#1f2a44"/>

  <line x1="190" y1="320" x2="190" y2="240" stroke="#1f2a44" stroke-width="3" stroke-linecap="round"/>
  <polygon points="185,275 190,285 195,275" fill="#1f2a44"/>

  <line x1="390" y1="320" x2="390" y2="240" stroke="#1f2a44" stroke-width="3" stroke-linecap="round"/>
  <polygon points="385,275 390,285 395,275" fill="#1f2a44"/>
  
  <line x1="190" y1="320" x2="590" y2="200" stroke="#1f2a44" stroke-width="3" stroke-linecap="round"/>
  <polygon points="570,210 590,200 570,190" fill="#1f2a44"/>
</svg>