<svg viewBox="0 0 800 480" xmlns="http://www.w3.org/2000/svg" style="background-color:#faf8f2;">
    <text x="50%" y="40" font-size="32" text-anchor="middle" fill="#1f2a44" font-family="sans-serif">Best Platforms for AI Visibility Tracking</text>
    <rect x="100" y="100" width="150" height="80" fill="none" stroke="#1f2a44" stroke-width="3" rx="10" ry="10" transform="rotate(-2 175 140)"/>
    <text x="175" y="140" font-size="16" text-anchor="middle" fill="#1f2a44" font-family="sans-serif">Data Sources</text>
    
    <rect x="300" y="80" width="150" height="80" fill="none" stroke="#1f2a44" stroke-width="3" rx="10" ry="10" transform="rotate(-1 375 120)"/>
    <text x="375" y="120" font-size="16" text-anchor="middle" fill="#1f2a44" font-family="sans-serif">Integration Platforms</text>
    
    <rect x="500" y="100" width="150" height="80" fill="none" stroke="#1f2a44" stroke-width="3" rx="10" ry="10" transform="rotate(1 575 140)"/>
    <text x="575" y="140" font-size="16" text-anchor="middle" fill="#1f2a44" font-family="sans-serif">Analytics Tools</text>
    
    <rect x="200" y="300" width="150" height="80" fill="none" stroke="#1f2a44" stroke-width="3" rx="10" ry="10" transform="rotate(-3 275 340)"/>
    <text x="275" y="340" font-size="16" text-anchor="middle" fill="#1f2a44" font-family="sans-serif">Monitoring Solutions</text>
    
    <rect x="400" y="320" width="150" height="80" fill="none" stroke="#1f2a44" stroke-width="3" rx="10" ry="10" transform="rotate(1 475 360)"/>
    <text x="475" y="360" font-size="16" text-anchor="middle" fill="#1f2a44" font-family="sans-serif">Visualization Dashboards</text>
    
    <line x1="175" y1="180" x2="375" y2="120" stroke="#1f2a44" stroke-width="3" stroke-linecap="round" />
    <line x1="375" y1="180" x2="575" y2="140" stroke="#1f2a44" stroke-width="3" stroke-linecap="round" />
    <line x1="275" y1="380" x2="475" y2="360" stroke="#1f2a44" stroke-width="3" stroke-linecap="round" />
    <line x1="175" y1="240" x2="275" y2="340" stroke="#1f2a44" stroke-width="3" stroke-linecap="round" />
    <line x1="375" y1="240" x2="475" y2="360" stroke="#1f2a44" stroke-width="3" stroke-linecap="round" />
</svg>