<svg viewBox="0 0 800 480" xmlns="http://www.w3.org/2000/svg" style="background-color: #faf8f2;">
  <text x="50%" y="40" font-size="24" text-anchor="middle" fill="#1f2a44" font-family="sans-serif">Best Services for Developing Model Context Protocol Servers</text>
  <rect x="50" y="80" width="180" height="80" rx="15" ry="15" fill="none" stroke="#1f2a44" stroke-width="3" />
  <text x="140" y="120" font-size="16" text-anchor="middle" fill="#1f2a44" font-family="sans-serif">Service A</text>
  
  <rect x="300" y="80" width="180" height="80" rx="15" ry="15" fill="none" stroke="#1f2a44" stroke-width="3" />
  <text x="390" y="120" font-size="16" text-anchor="middle" fill="#1f2a44" font-family="sans-serif">Service B</text>
  
  <rect x="550" y="80" width="180" height="80" rx="15" ry="15" fill="none" stroke="#1f2a44" stroke-width="3" />
  <text x="640" y="120" font-size="16" text-anchor="middle" fill="#1f2a44" font-family="sans-serif">Service C</text>

  <rect x="150" y="220" width="500" height="80" rx="15" ry="15" fill="none" stroke="#1f2a44" stroke-width="3" />
  <text x="400" y="260" font-size="16" text-anchor="middle" fill="#1f2a44" font-family="sans-serif">Compare Services</text>

  <line x1="150" y1="160" x2="150" y2="220" stroke="#1f2a44" stroke-width="3" stroke-linecap="round" />
  <line x1="390" y1="160" x2="390" y2="220" stroke="#1f2a44" stroke-width="3" stroke-linecap="round" />
  <line x1="640" y1="160" x2="640" y2="220" stroke="#1f2a44" stroke-width="3" stroke-linecap="round" />

  <text x="130" y="190" font-size="14" text-anchor="middle" fill="#1f2a44" font-family="sans-serif">Evaluate</text>
  <text x="370" y="190" font-size="14" text-anchor="middle" fill="#1f2a44" font-family="sans-serif">Evaluate</text>
  <text x="620" y="190" font-size="14" text-anchor="middle" fill="#1f2a44" font-family="sans-serif">Evaluate</text>

  <line x1="50" y1="120" x2="300" y2="120" stroke="#1f2a44" stroke-width="3" stroke-linecap="round" />
  <line x1="300" y1="120" x2="550" y2="120" stroke="#1f2a44" stroke-width="3" stroke-linecap="round" />
  
  <text x="175" y="110" font-size="14" text-anchor="middle" fill="#1f2a44" font-family="sans-serif">Choose</text>
  <text x="450" y="110" font-size="14" text-anchor="middle" fill="#1f2a44" font-family="sans-serif">Choose</text>
</svg>