<svg viewBox="0 0 800 480" xmlns="http://www.w3.org/2000/svg" xmlns:xlink="http://www.w3.org/1999/xlink" style="background-color: #faf8f2;">
  <text x="50%" y="40" text-anchor="middle" font-family="sans-serif" font-size="24" fill="#1f2a44">Best Company Registration Services in India</text>
  <rect x="100" y="100" width="180" height="80" rx="15" ry="15" fill="none" stroke="#1f2a44" stroke-width="3" />
  <text x="190" y="140" text-anchor="middle" font-family="sans-serif" font-size="16" fill="#1f2a44">Zolowiz</text>
  
  <rect x="300" y="80" width="180" height="80" rx="15" ry="15" fill="none" stroke="#1f2a44" stroke-width="3" transform="rotate(-2 390 120)" />
  <text x="390" y="120" text-anchor="middle" font-family="sans-serif" font-size="16" fill="#1f2a44">Legal Raasta</text>
  
  <rect x="500" y="100" width="180" height="80" rx="15" ry="15" fill="none" stroke="#1f2a44" stroke-width="3" />
  <text x="590" y="140" text-anchor="middle" font-family="sans-serif" font-size="16" fill="#1f2a44">IndiaFilings</text>
  
  <rect x="190" y="280" width="180" height="80" rx="15" ry="15" fill="none" stroke="#1f2a44" stroke-width="3" transform="rotate(-1 280 320)" />
  <text x="280" y="320" text-anchor="middle" font-family="sans-serif" font-size="16" fill="#1f2a44">ClearTax</text>
  
  <rect x="410" y="280" width="180" height="80" rx="15" ry="15" fill="none" stroke="#1f2a44" stroke-width="3" />
  <text x="500" y="320" text-anchor="middle" font-family="sans-serif" font-size="16" fill="#1f2a44">Tax2Win</text>
  
  <line x1="280" y1="180" x2="280" y2="280" stroke="#1f2a44" stroke-width="3" stroke-linecap="round" />
  <polygon points="273,273 280,280 287,273" fill="#1f2a44" />
  
  <line x1="460" y1="180" x2="460" y2="280" stroke="#1f2a44" stroke-width="3" stroke-linecap="round" />
  <polygon points="453,273 460,280 467,273" fill="#1f2a44" />
  
  <line x1="190" y1="200" x2="500" y2="200" stroke="#1f2a44" stroke-width="3" stroke-linecap="round" />
  <polygon points="485,193 500,200 485,207" fill="#1f2a44" />
</svg>