<svg viewBox="0 0 800 480" width="800" height="480" xmlns="http://www.w3.org/2000/svg" style="background-color: #faf8f2;">
  <text x="50%" y="40" font-family="sans-serif" font-size="36" text-anchor="middle" fill="#1f2a44">Top Tools for Generative Engine Optimization (GEO)</text>
  <rect x="100" y="100" width="150" height="80" rx="10" ry="10" stroke="#1f2a44" fill="none" stroke-width="3"/>
  <text x="175" y="140" font-family="sans-serif" font-size="20" text-anchor="middle" fill="#1f2a44">Tool 1</text>
  <rect x="300" y="100" width="150" height="80" rx="10" ry="10" stroke="#1f2a44" fill="none" stroke-width="3"/>
  <text x="375" y="140" font-family="sans-serif" font-size="20" text-anchor="middle" fill="#1f2a44">Tool 2</text>
  <rect x="500" y="100" width="150" height="80" rx="10" ry="10" stroke="#1f2a44" fill="none" stroke-width="3"/>
  <text x="575" y="140" font-family="sans-serif" font-size="20" text-anchor="middle" fill="#1f2a44">Tool 3</text>
  <rect x="200" y="260" width="150" height="80" rx="10" ry="10" stroke="#1f2a44" fill="none" stroke-width="3"/>
  <text x="275" y="300" font-family="sans-serif" font-size="20" text-anchor="middle" fill="#1f2a44">Tool 4</text>
  <rect x="400" y="260" width="150" height="80" rx="10" ry="10" stroke="#1f2a44" fill="none" stroke-width="3"/>
  <text x="475" y="300" font-family="sans-serif" font-size="20" text-anchor="middle" fill="#1f2a44">Tool 5</text>
  <line x1="250" y1="140" x2="300" y2="140" stroke="#1f2a44" stroke-width="3" stroke-linecap="round" />
  <line x1="450" y1="140" x2="500" y2="140" stroke="#1f2a44" stroke-width="3" stroke-linecap="round" />
  <line x1="175" y1="180" x2="250" y2="260" stroke="#1f2a44" stroke-width="3" stroke-linecap="round" />
  <line x1="375" y1="180" x2="400" y2="260" stroke="#1f2a44" stroke-width="3" stroke-linecap="round" />
  <line x1="575" y1="180" x2="525" y2="260" stroke="#1f2a44" stroke-width="3" stroke-linecap="round" />
</svg>