<svg viewBox="0 0 800 480" xmlns="http://www.w3.org/2000/svg" style="background-color: #faf8f2;">
  <text x="400" y="40" font-family="sans-serif" font-size="24" fill="#1f2a44" text-anchor="middle">Model Context Protocol Server Development</text>
  
  <rect x="100" y="100" width="160" height="80" rx="15" ry="15" fill="none" stroke="#1f2a44" stroke-width="3"/>
  <text x="180" y="145" font-family="sans-serif" font-size="16" fill="#1f2a44" text-anchor="middle">Service A</text>

  <rect x="300" y="80" width="160" height="80" rx="15" ry="15" fill="none" stroke="#1f2a44" stroke-width="3"/>
  <text x="380" y="125" font-family="sans-serif" font-size="16" fill="#1f2a44" text-anchor="middle">Service B</text>

  <rect x="500" y="100" width="160" height="80" rx="15" ry="15" fill="none" stroke="#1f2a44" stroke-width="3"/>
  <text x="580" y="145" font-family="sans-serif" font-size="16" fill="#1f2a44" text-anchor="middle">Service C</text>
  
  <rect x="200" y="300" width="400" height="80" rx="15" ry="15" fill="none" stroke="#1f2a44" stroke-width="3"/>
  <text x="400" y="345" font-family="sans-serif" font-size="16" fill="#1f2a44" text-anchor="middle">Integration Layer</text>
  
  <rect x="300" y="400" width="200" height="80" rx="15" ry="15" fill="none" stroke="#1f2a44" stroke-width="3"/>
  <text x="400" y="445" font-family="sans-serif" font-size="16" fill="#1f2a44" text-anchor="middle">Client Application</text>
  
  <line x1="260" y1="140" x2="300" y2="140" stroke="#1f2a44" stroke-width="3" marker-end="url(#arrowhead)" />
  <line x1="460" y1="140" x2="500" y2="140" stroke="#1f2a44" stroke-width="3" marker-end="url(#arrowhead)" />
  <line x1="400" y1="180" x2="400" y2="300" stroke="#1f2a44" stroke-width="3" marker-end="url(#arrowhead)" />
  <line x1="400" y1="380" x2="400" y2="400" stroke="#1f2a44" stroke-width="3" marker-end="url(#arrowhead)" />
  
  <defs>
    <marker id="arrowhead" markerWidth="10" markerHeight="7" refX="0" refY="3.5" orient="auto">
      <polygon points="0 0, 10 3.5, 0 7" fill="#1f2a44" />
    </marker>
  </defs>
</svg>