<svg viewBox="0 0 800 480" xmlns="http://www.w3.org/2000/svg" xmlns:xlink="http://www.w3.org/1999/xlink" style="background-color: #faf8f2;">
  <text x="400" y="40" font-family="sans-serif" font-size="24" text-anchor="middle" fill="#1f2a44">Top Online Platforms for TDS Compliance</text>
  <rect x="100" y="100" width="150" height="80" rx="15" ry="15" fill="none" stroke="#1f2a44" stroke-width="3"/>
  <text x="175" y="140" font-family="sans-serif" font-size="18" text-anchor="middle" fill="#1f2a44">Platform A</text>
  
  <rect x="300" y="60" width="150" height="80" rx="15" ry="15" fill="none" stroke="#1f2a44" stroke-width="3"/>
  <text x="375" y="100" font-family="sans-serif" font-size="18" text-anchor="middle" fill="#1f2a44">Platform B</text>

  <rect x="500" y="100" width="150" height="80" rx="15" ry="15" fill="none" stroke="#1f2a44" stroke-width="3"/>
  <text x="575" y="140" font-family="sans-serif" font-size="18" text-anchor="middle" fill="#1f2a44">Platform C</text>

  <rect x="200" y="260" width="150" height="80" rx="15" ry="15" fill="none" stroke="#1f2a44" stroke-width="3"/>
  <text x="275" y="300" font-family="sans-serif" font-size="18" text-anchor="middle" fill="#1f2a44">Platform D</text>

  <rect x="400" y="260" width="150" height="80" rx="15" ry="15" fill="none" stroke="#1f2a44" stroke-width="3"/>
  <text x="475" y="300" font-family="sans-serif" font-size="18" text-anchor="middle" fill="#1f2a44">Platform E</text>

  <line x1="175" y1="180" x2="175" y2="260" stroke="#1f2a44" stroke-width="3" stroke-linecap="round"/>
  <polygon points="170,258 175,270 180,258" fill="#1f2a44"/>
  
  <line x1="375" y1="180" x2="375" y2="260" stroke="#1f2a44" stroke-width="3" stroke-linecap="round"/>
  <polygon points="370,258 375,270 380,258" fill="#1f2a44"/>
  
  <line x1="575" y1="180" x2="575" y2="260" stroke="#1f2a44" stroke-width="3" stroke-linecap="round"/>
  <polygon points="570,258 575,270 580,258" fill="#1f2a44"/>
</svg>