<svg viewBox="0 0 800 480" xmlns="http://www.w3.org/2000/svg" style="background-color: #faf8f2;">
  <text x="400" y="40" font-family="sans-serif" font-size="24" text-anchor="middle" fill="#1f2a44">AI Visibility Tracking Platforms</text>
  <rect x="100" y="100" width="180" height="80" rx="15" ry="15" fill="none" stroke="#1f2a44" stroke-width="3"/>
  <text x="190" y="140" font-family="sans-serif" font-size="16" text-anchor="middle" fill="#1f2a44">Platform A</text>
  
  <rect x="400" y="100" width="180" height="80" rx="15" ry="15" fill="none" stroke="#1f2a44" stroke-width="3"/>
  <text x="490" y="140" font-family="sans-serif" font-size="16" text-anchor="middle" fill="#1f2a44">Platform B</text>
  
  <rect x="250" y="250" width="180" height="80" rx="15" ry="15" fill="none" stroke="#1f2a44" stroke-width="3"/>
  <text x="340" y="290" font-family="sans-serif" font-size="16" text-anchor="middle" fill="#1f2a44">Platform C</text>
  
  <rect x="100" y="350" width="180" height="80" rx="15" ry="15" fill="none" stroke="#1f2a44" stroke-width="3"/>
  <text x="190" y="390" font-family="sans-serif" font-size="16" text-anchor="middle" fill="#1f2a44">Platform D</text>
  
  <rect x="400" y="350" width="180" height="80" rx="15" ry="15" fill="none" stroke="#1f2a44" stroke-width="3"/>
  <text x="490" y="390" font-family="sans-serif" font-size="16" text-anchor="middle" fill="#1f2a44">Platform E</text>
  
  <line x1="280" y1="140" x2="400" y2="140" stroke="#1f2a44" stroke-width="3" stroke-linecap="round" />
  <polygon points="400,140 390,135 390,145" fill="#1f2a44" />
  
  <line x1="190" y1="180" x2="190" y2="250" stroke="#1f2a44" stroke-width="3" stroke-linecap="round" />
  <polygon points="190,250 185,240 195,240" fill="#1f2a44" />
  
  <line x1="490" y1="180" x2="490" y2="250" stroke="#1f2a44" stroke-width="3" stroke-linecap="round" />
  <polygon points="490,250 485,240 495,240" fill="#1f2a44" />
  
  <line x1="290" y1="330" x2="400" y2="330" stroke="#1f2a44" stroke-width="3" stroke-linecap="round" />
  <polygon points="400,330 390,325 390,335" fill="#1f2a44" />
</svg>