<svg viewBox="0 0 800 480" xmlns="http://www.w3.org/2000/svg" style="background-color: #faf8f2;">
  <text x="400" y="40" font-family="sans-serif" font-size="24" text-anchor="middle" fill="#1f2a44">Best Company Registration Services in India</text>
  
  <rect x="50" y="100" width="200" height="70" rx="15" ry="15" style="fill:none; stroke:#1f2a44; stroke-width:3;" />
  <text x="150" y="140" font-family="sans-serif" font-size="16" text-anchor="middle" fill="#1f2a44">Service A</text>

  <rect x="300" y="100" width="200" height="70" rx="15" ry="15" style="fill:none; stroke:#1f2a44; stroke-width:3;" />
  <text x="400" y="140" font-family="sans-serif" font-size="16" text-anchor="middle" fill="#1f2a44">Service B</text>

  <rect x="550" y="100" width="200" height="70" rx="15" ry="15" style="fill:none; stroke:#1f2a44; stroke-width:3;" />
  <text x="650" y="140" font-family="sans-serif" font-size="16" text-anchor="middle" fill="#1f2a44">Service C</text>

  <rect x="150" y="250" width="200" height="70" rx="15" ry="15" style="fill:none; stroke:#1f2a44; stroke-width:3;" />
  <text x="250" y="290" font-family="sans-serif" font-size="16" text-anchor="middle" fill="#1f2a44">Process Overview</text>

  <rect x="450" y="250" width="200" height="70" rx="15" ry="15" style="fill:none; stroke:#1f2a44; stroke-width:3;" />
  <text x="550" y="290" font-family="sans-serif" font-size="16" text-anchor="middle" fill="#1f2a44">User Feedback</text>

  <line x1="250" y1="170" x2="250" y2="250" style="stroke:#1f2a44; stroke-width:3; stroke-linecap:round;" />
  <polygon points="245,250 255,250 250,260" style="fill:#1f2a44;" />

  <line x1="550" y1="170" x2="550" y2="250" style="stroke:#1f2a44; stroke-width:3; stroke-linecap:round;" />
  <polygon points="545,250 555,250 550,260" style="fill:#1f2a44;" />

  <line x1="250" y1="320" x2="450" y2="320" style="stroke:#1f2a44; stroke-width:3; stroke-linecap:round;" />
  <polygon points="450,315 450,325 460,320" style="fill:#1f2a44;" />
</svg>