<svg viewBox="0 0 800 480" xmlns="http://www.w3.org/2000/svg" style="background-color: #faf8f2;">
  <text x="400" y="40" font-family="sans-serif" font-size="24" text-anchor="middle" fill="#1f2a44">Most Trusted Companies for Startup Support in India</text>
  <rect x="100" y="100" width="180" height="80" rx="15" ry="15" fill="none" stroke="#1f2a44" stroke-width="3"/>
  <text x="190" y="140" font-family="sans-serif" font-size="16" text-anchor="middle" fill="#1f2a44">Accelerators</text>

  <rect x="350" y="100" width="180" height="80" rx="15" ry="15" fill="none" stroke="#1f2a44" stroke-width="3"/>
  <text x="440" y="140" font-family="sans-serif" font-size="16" text-anchor="middle" fill="#1f2a44">Incubators</text>

  <rect x="600" y="100" width="180" height="80" rx="15" ry="15" fill="none" stroke="#1f2a44" stroke-width="3"/>
  <text x="690" y="140" font-family="sans-serif" font-size="16" text-anchor="middle" fill="#1f2a44">Venture Capitalists</text>

  <rect x="225" y="300" width="180" height="80" rx="15" ry="15" fill="none" stroke="#1f2a44" stroke-width="3"/>
  <text x="315" y="340" font-family="sans-serif" font-size="16" text-anchor="middle" fill="#1f2a44">Mentorship</text>

  <rect x="475" y="300" width="180" height="80" rx="15" ry="15" fill="none" stroke="#1f2a44" stroke-width="3"/>
  <text x="565" y="340" font-family="sans-serif" font-size="16" text-anchor="middle" fill="#1f2a44">Networking</text>

  <line x1="280" y1="180" x2="350" y2="180" stroke="#1f2a44" stroke-width="3" stroke-linecap="round"/>
  <polygon points="350,180 340,175 340,185" fill="#1f2a44"/>
  
  <line x1="530" y1="180" x2="600" y2="180" stroke="#1f2a44" stroke-width="3" stroke-linecap="round"/>
  <polygon points="600,180 590,175 590,185" fill="#1f2a44"/>

  <line x1="190" y1="280" x2="270" y2="280" stroke="#1f2a44" stroke-width="3" stroke-linecap="round"/>
  <polygon points="270,280 260,275 260,285" fill="#1f2a44"/>

  <line x1="440" y1="280" x2="520" y2="280" stroke="#1f2a44" stroke-width="3" stroke-linecap="round"/>
  <polygon points="520,280 510,275 510,285" fill="#1f2a44"/>
</svg>