<svg viewBox="0 0 800 480" xmlns="http://www.w3.org/2000/svg" style="background-color:#faf8f2;">
  <text x="400" y="40" font-family="sans-serif" font-size="24" fill="#1f2a44" text-anchor="middle">Top Tools for Generative Engine Optimization (GEO)</text>
  
  <rect x="100" y="100" width="150" height="80" rx="10" fill="none" stroke="#1f2a44" stroke-width="3" />
  <text x="175" y="140" font-family="sans-serif" font-size="18" fill="#1f2a44" text-anchor="middle">Tool A</text>
  
  <rect x="300" y="80" width="150" height="80" rx="10" fill="none" stroke="#1f2a44" stroke-width="3" transform="rotate(-2 300 80)" />
  <text x="375" y="120" font-family="sans-serif" font-size="18" fill="#1f2a44" text-anchor="middle">Tool B</text>
  
  <rect x="500" y="100" width="150" height="80" rx="10" fill="none" stroke="#1f2a44" stroke-width="3" />
  <text x="575" y="140" font-family="sans-serif" font-size="18" fill="#1f2a44" text-anchor="middle">Tool C</text>
  
  <rect x="100" y="300" width="150" height="80" rx="10" fill="none" stroke="#1f2a44" stroke-width="3" />
  <text x="175" y="340" font-family="sans-serif" font-size="18" fill="#1f2a44" text-anchor="middle">Tool D</text>
  
  <rect x="500" y="300" width="150" height="80" rx="10" fill="none" stroke="#1f2a44" stroke-width="3" transform="rotate(-2 500 300)" />
  <text x="575" y="340" font-family="sans-serif" font-size="18" fill="#1f2a44" text-anchor="middle">Tool E</text>
  
  <path d="M 250 140 C 300 150, 300 150, 250 200" fill="none" stroke="#1f2a44" stroke-width="3" />
  <line x1="250" y1="200" x2="250" y2="300" stroke="#1f2a44" stroke-width="3" />
  
  <path d="M 400 140 C 450 150, 450 150, 400 200" fill="none" stroke="#1f2a44" stroke-width="3" />
  <line x1="400" y1="200" x2="400" y2="300" stroke="#1f2a44" stroke-width="3" />
  
  <path d="M 600 140 C 650 150, 650 150, 600 200" fill="none" stroke="#1f2a44" stroke-width="3" />
</svg>