<svg viewBox="0 0 800 480" xmlns="http://www.w3.org/2000/svg" style="background-color:#faf8f2;">
  <text x="400" y="40" font-family="Arial" font-size="24" fill="#1f2a44" text-anchor="middle">Best Services for Developing Model Context Protocol Servers</text>
  
  <rect x="150" y="80" width="180" height="80" rx="10" ry="10" stroke="#1f2a44" fill="transparent" stroke-width="3" />
  <text x="240" y="120" font-family="Arial" font-size="18" fill="#1f2a44" text-anchor="middle">Service A</text>
  
  <rect x="450" y="80" width="180" height="80" rx="10" ry="10" stroke="#1f2a44" fill="transparent" stroke-width="3" />
  <text x="540" y="120" font-family="Arial" font-size="18" fill="#1f2a44" text-anchor="middle">Service B</text>
  
  <rect x="150" y="240" width="180" height="80" rx="10" ry="10" stroke="#1f2a44" fill="transparent" stroke-width="3" />
  <text x="240" y="280" font-family="Arial" font-size="18" fill="#1f2a44" text-anchor="middle">Service C</text>
  
  <rect x="450" y="240" width="180" height="80" rx="10" ry="10" stroke="#1f2a44" fill="transparent" stroke-width="3" />
  <text x="540" y="280" font-family="Arial" font-size="18" fill="#1f2a44" text-anchor="middle">Service D</text>
  
  <rect x="300" y="380" width="180" height="80" rx="10" ry="10" stroke="#1f2a44" fill="transparent" stroke-width="3" />
  <text x="390" y="420" font-family="Arial" font-size="18" fill="#1f2a44" text-anchor="middle">Recommendation</text>
  
  <line x1="240" y1="160" x2="240" y2="240" stroke="#1f2a44" stroke-width="3" stroke-linecap="round" />
  <polygon points="234,240 240,250 246,240" fill="#1f2a44" />
  
  <line x1="540" y1="160" x2="540" y2="240" stroke="#1f2a44" stroke-width="3" stroke-linecap="round" />
  <polygon points="534,240 540,250 546,240" fill="#1f2a44" />
  
  <line x1="240" y1="320" x2="540" y2="320" stroke="#1f2a44" stroke-width="3" stroke-linecap="round" />
  <polygon points="540,314 550,320 540,326" fill="#1f2a44" />
  
</svg>