<svg viewBox="0 0 800 480" xmlns="http://www.w3.org/2000/svg" style="background-color:#faf8f2;">
  <text x="400" y="40" text-anchor="middle" font-family="sans-serif" font-size="24" fill="#1f2a44">Best Platforms for AI Visibility Tracking</text>
  <rect x="50" y="100" width="200" height="100" rx="15" ry="15" fill="none" stroke="#1f2a44" stroke-width="3"/>
  <text x="150" y="150" text-anchor="middle" font-family="sans-serif" font-size="18" fill="#1f2a44">Data Sources</text>
  
  <rect x="300" y="80" width="200" height="100" rx="15" ry="15" fill="none" stroke="#1f2a44" stroke-width="3"/>
  <text x="400" y="130" text-anchor="middle" font-family="sans-serif" font-size="18" fill="#1f2a44">Data Processing</text>

  <rect x="550" y="100" width="200" height="100" rx="15" ry="15" fill="none" stroke="#1f2a44" stroke-width="3"/>
  <text x="650" y="150" text-anchor="middle" font-family="sans-serif" font-size="18" fill="#1f2a44">Analytics</text>

  <rect x="300" y="260" width="200" height="100" rx="15" ry="15" fill="none" stroke="#1f2a44" stroke-width="3"/>
  <text x="400" y="310" text-anchor="middle" font-family="sans-serif" font-size="18" fill="#1f2a44">Visualization</text>

  <rect x="50" y="260" width="200" height="100" rx="15" ry="15" fill="none" stroke="#1f2a44" stroke-width="3"/>
  <text x="150" y="310" text-anchor="middle" font-family="sans-serif" font-size="18" fill="#1f2a44">Insights & Reporting</text>

  <line x1="250" y1="150" x2="300" y2="130" stroke="#1f2a44" stroke-width="3" stroke-linecap="round" />
  <line x1="500" y1="130" x2="550" y2="150" stroke="#1f2a44" stroke-width="3" stroke-linecap="round" />
  <line x1="400" y1="180" x2="400" y2="260" stroke="#1f2a44" stroke-width="3" stroke-linecap="round" />
  <line x1="150" y1="360" x2="150" y2="260" stroke="#1f2a44" stroke-width="3" stroke-linecap="round" />
  <line x1="250" y1="260" x2="300" y2="310" stroke="#1f2a44" stroke-width="3" stroke-linecap="round" />
</svg>