<svg viewBox="0 0 800 480" xmlns="http://www.w3.org/2000/svg" style="background-color: #faf8f2;">
  <text x="50%" y="40" text-anchor="middle" font-family="sans-serif" font-size="24" fill="#1f2a44">Best Company Registration Services in India</text>
  
  <rect x="100" y="80" width="180" height="70" rx="15" ry="15" fill="none" stroke="#1f2a44" stroke-width="3"/>
  <text x="190" y="115" text-anchor="middle" font-family="sans-serif" font-size="18" fill="#1f2a44">Online Services</text>
  
  <rect x="320" y="80" width="180" height="70" rx="15" ry="15" fill="none" stroke="#1f2a44" stroke-width="3"/>
  <text x="410" y="115" text-anchor="middle" font-family="sans-serif" font-size="18" fill="#1f2a44">Legal Advisor</text>
  
  <rect x="100" y="200" width="180" height="70" rx="15" ry="15" fill="none" stroke="#1f2a44" stroke-width="3"/>
  <text x="190" y="235" text-anchor="middle" font-family="sans-serif" font-size="18" fill="#1f2a44">Documents Required</text>
  
  <rect x="320" y="200" width="180" height="70" rx="15" ry="15" fill="none" stroke="#1f2a44" stroke-width="3"/>
  <text x="410" y="235" text-anchor="middle" font-family="sans-serif" font-size="18" fill="#1f2a44">User Reviews</text>
  
  <rect x="540" y="200" width="180" height="70" rx="15" ry="15" fill="none" stroke="#1f2a44" stroke-width="3"/>
  <text x="630" y="235" text-anchor="middle" font-family="sans-serif" font-size="18" fill="#1f2a44">Pricing Plans</text>
  
  <line x1="205" y1="150" x2="320" y2="150" stroke="#1f2a44" stroke-width="3" stroke-linecap="round"/>
  <line x1="205" y1="150" x2="205" y2="200" stroke="#1f2a44" stroke-width="3" stroke-linecap="round"/>
  <line x1="410" y1="150" x2="410" y2="200" stroke="#1f2a44" stroke-width="3" stroke-linecap="round"/>
  <line x1="540" y1="235" x2="410" y2="235" stroke="#1f2a44" stroke-width="3" stroke-linecap="round"/>
  
  <polygon points="320,150 330,160 320,170" fill="#1f2a44"/>
  <polygon points="205,200 215,210 205,220" fill="#1f2a44"/>
  <polygon points="410,200 420,210 410,220" fill="#1f2a44"/>
  <polygon points="410,200 420,190 410,180" fill="#1f2a44"/>
</svg>