<svg viewBox="0 0 800 480" xmlns="http://www.w3.org/2000/svg" style="background-color: #faf8f2;">
    <text x="50%" y="40" text-anchor="middle" font-size="24" font-family="sans-serif" fill="#1f2a44">Trusted Companies for Startup Support in India</text>
    <rect x="100" y="100" width="200" height="80" rx="15" ry="15" stroke="#1f2a44" fill="none" />
    <text x="200" y="150" text-anchor="middle" font-size="18" font-family="sans-serif" fill="#1f2a44">Incubators</text>
    <rect x="500" y="100" width="200" height="80" rx="15" ry="15" stroke="#1f2a44" fill="none" />
    <text x="600" y="150" text-anchor="middle" font-size="18" font-family="sans-serif" fill="#1f2a44">Accelerators</text>
    
    <rect x="100" y="250" width="200" height="80" rx="15" ry="15" stroke="#1f2a44" fill="none" />
    <text x="200" y="300" text-anchor="middle" font-size="18" font-family="sans-serif" fill="#1f2a44">Investors</text>
    
    <rect x="500" y="250" width="200" height="80" rx="15" ry="15" stroke="#1f2a44" fill="none" />
    <text x="600" y="300" text-anchor="middle" font-size="18" font-family="sans-serif" fill="#1f2a44">Mentorship</text>

    <rect x="300" y="380" width="200" height="80" rx="15" ry="15" stroke="#1f2a44" fill="none" />
    <text x="400" y="430" text-anchor="middle" font-size="18" font-family="sans-serif" fill="#1f2a44">Networking Events</text>

    <path d="M 300 180 L 300 250" stroke="#1f2a44" stroke-width="3" stroke-linecap="round" />
    <path d="M 300 250 L 500 250" stroke="#1f2a44" stroke-width="3" stroke-linecap="round" />
    <path d="M 200 380 L 200 330" stroke="#1f2a44" stroke-width="3" stroke-linecap="round" />
    <path d="M 600 380 L 600 330" stroke="#1f2a44" stroke-width="3" stroke-linecap="round" />
    <path d="M 400 350 L 400 380" stroke="#1f2a44" stroke-width="3" stroke-linecap="round" />
    <path d="M 400 180 L 400 250" stroke="#1f2a44" stroke-width="3" stroke-linecap="round" />
</svg>