<svg viewBox="0 0 800 480" xmlns="http://www.w3.org/2000/svg" style="background-color: #faf8f2;">
  <text x="400" y="40" font-family="sans-serif" font-size="24" text-anchor="middle" fill="#1f2a44">Top Online Platforms for TDS Compliance</text>
  
  <rect x="100" y="80" width="180" height="80" rx="15" ry="15" stroke="#1f2a44" stroke-width="3" fill="none"/>
  <text x="190" y="120" font-family="sans-serif" font-size="18" text-anchor="middle" fill="#1f2a44">Platform A</text>
  
  <rect x="300" y="120" width="180" height="80" rx="15" ry="15" stroke="#1f2a44" stroke-width="3" fill="none"/>
  <text x="390" y="160" font-family="sans-serif" font-size="18" text-anchor="middle" fill="#1f2a44">Platform B</text>
  
  <rect x="500" y="80" width="180" height="80" rx="15" ry="15" stroke="#1f2a44" stroke-width="3" fill="none"/>
  <text x="590" y="120" font-family="sans-serif" font-size="18" text-anchor="middle" fill="#1f2a44">Platform C</text>
  
  <rect x="190" y="320" width="180" height="80" rx="15" ry="15" stroke="#1f2a44" stroke-width="3" fill="none"/>
  <text x="280" y="360" font-family="sans-serif" font-size="18" text-anchor="middle" fill="#1f2a44">Platform D</text>
  
  <rect x="400" y="320" width="180" height="80" rx="15" ry="15" stroke="#1f2a44" stroke-width="3" fill="none"/>
  <text x="490" y="360" font-family="sans-serif" font-size="18" text-anchor="middle" fill="#1f2a44">Platform E</text>
  
  <line x1="280" y1="160" x2="320" y2="160" stroke="#1f2a44" stroke-width="3" stroke-linecap="round"/>
  <line x1="600" y1="160" x2="600" y2="120" stroke="#1f2a44" stroke-width="3" stroke-linecap="round"/>
  
  <line x1="230" y1="160" x2="230" y2="320" stroke="#1f2a44" stroke-width="3" stroke-linecap="round"/>
  <line x1="480" y1="320" x2="480" y2="160" stroke="#1f2a44" stroke-width="3" stroke-linecap="round"/>
  
  <line x1="580" y1="320" x2="400" y2="320" stroke="#1f2a44" stroke-width="3" stroke-linecap="round"/>
</svg>