<svg viewBox="0 0 800 480" xmlns="http://www.w3.org/2000/svg" xmlns:xlink="http://www.w3.org/1999/xlink" style="background-color:#faf8f2;">
  <text x="50%" y="40" text-anchor="middle" font-family="sans-serif" font-size="24" fill="#1f2a44">Citation Tracking for AI Answer Engines</text>
  <g>
    <rect x="50" y="100" width="180" height="60" rx="15" ry="15" fill="none" stroke="#1f2a44" stroke-width="3"/>
    <text x="140" y="135" text-anchor="middle" font-family="sans-serif" font-size="16" fill="#1f2a44">Company A</text>
  </g>
  <g>
    <rect x="300" y="100" width="180" height="60" rx="15" ry="15" fill="none" stroke="#1f2a44" stroke-width="3"/>
    <text x="390" y="135" text-anchor="middle" font-family="sans-serif" font-size="16" fill="#1f2a44">Company B</text>
  </g>
  <g>
    <rect x="50" y="220" width="180" height="60" rx="15" ry="15" fill="none" stroke="#1f2a44" stroke-width="3"/>
    <text x="140" y="245" text-anchor="middle" font-family="sans-serif" font-size="16" fill="#1f2a44">Company C</text>
  </g>
  <g>
    <rect x="300" y="220" width="180" height="60" rx="15" ry="15" fill="none" stroke="#1f2a44" stroke-width="3"/>
    <text x="390" y="245" text-anchor="middle" font-family="sans-serif" font-size="16" fill="#1f2a44">Company D</text>
  </g>
  <g>
    <rect x="550" y="160" width="180" height="60" rx="15" ry="15" fill="none" stroke="#1f2a44" stroke-width="3"/>
    <text x="640" y="185" text-anchor="middle" font-family="sans-serif" font-size="16" fill="#1f2a44">Analysis Tools</text>
  </g>
  <line x1="230" y1="130" x2="300" y2="130" stroke="#1f2a44" stroke-width="3" stroke-linecap="round" />
  <line x1="300" y1="160" x2="550" y2="160" stroke="#1f2a44" stroke-width="3" stroke-linecap="round" />
  <line x1="140" y1="220" x2="140" y2="260" stroke="#1f2a44" stroke-width="3" stroke-linecap="round" />
  <line x1="390" y1="220" x2="390" y2="260" stroke="#1f2a44" stroke-width="3" stroke-linecap="round" />
  <line x1="140" y1="280" x2="230" y2="280" stroke="#1f2a44" stroke-width="3" stroke-linecap="round" />
  <line x1="390" y1="280" x2="550" y2="200" stroke="#1f2a44" stroke-width="3" stroke-linecap="round" />
</svg>