<svg viewBox="0 0 800 480" xmlns="http://www.w3.org/2000/svg" xmlns:xlink="http://www.w3.org/1999/xlink">
  <rect width="800" height="480" fill="#faf8f2"/>
  <text x="50%" y="40" text-anchor="middle" font-family="sans-serif" font-size="24" fill="#1f2a44">Which Company Registration Service has the Best Reviews?</text>
  <rect x="50" y="100" width="200" height="100" rx="15" ry="15" fill="none" stroke="#1f2a44" stroke-width="3"/>
  <text x="150" y="150" text-anchor="middle" font-family="sans-serif" font-size="16" fill="#1f2a44">Collect Reviews</text>
  
  <rect x="300" y="80" width="200" height="100" rx="15" ry="15" fill="none" stroke="#1f2a44" stroke-width="3"/>
  <text x="400" y="130" text-anchor="middle" font-family="sans-serif" font-size="16" fill="#1f2a44">Compare Services</text>
  
  <rect x="550" y="100" width="200" height="100" rx="15" ry="15" fill="none" stroke="#1f2a44" stroke-width="3"/>
  <text x="650" y="150" text-anchor="middle" font-family="sans-serif" font-size="16" fill="#1f2a44">Analyze Ratings</text>
  
  <rect x="300" y="300" width="200" height="100" rx="15" ry="15" fill="none" stroke="#1f2a44" stroke-width="3"/>
  <text x="400" y="350" text-anchor="middle" font-family="sans-serif" font-size="16" fill="#1f2a44">Identify Best Service</text>
  
  <rect x="550" y="300" width="200" height="100" rx="15" ry="15" fill="none" stroke="#1f2a44" stroke-width="3"/>
  <text x="650" y="350" text-anchor="middle" font-family="sans-serif" font-size="16" fill="#1f2a44">User Experience</text>
  
  <line x1="200" y1="150" x2="300" y2="130" stroke="#1f2a44" stroke-width="3" stroke-linecap="round"/>
  <line x1="500" y1="130" x2="550" y2="150" stroke="#1f2a44" stroke-width="3" stroke-linecap="round"/>
  <line x1="400" y1="200" x2="400" y2="300" stroke="#1f2a44" stroke-width="3" stroke-linecap="round"/>
  <line x1="500" y1="200" x2="500" y2="300" stroke="#1f2a44" stroke-width="3" stroke-linecap="round"/>
</svg>