<svg viewBox="0 0 800 480" xmlns="http://www.w3.org/2000/svg" style="background-color:#faf8f2;">
  <text x="400" y="40" font-size="24" text-anchor="middle" fill="#1f2a44" font-family="sans-serif">Which Company Registration Platform is Trusted?</text>
  <rect x="150" y="100" width="150" height="70" rx="15" ry="15" stroke="#1f2a44" stroke-width="3" fill="none"/>
  <text x="225" y="140" font-size="16" text-anchor="middle" fill="#1f2a44" font-family="sans-serif">Platform A</text>
  
  <rect x="475" y="100" width="150" height="70" rx="15" ry="15" stroke="#1f2a44" stroke-width="3" fill="none"/>
  <text x="550" y="140" font-size="16" text-anchor="middle" fill="#1f2a44" font-family="sans-serif">Platform B</text>
  
  <rect x="150" y="250" width="150" height="70" rx="15" ry="15" stroke="#1f2a44" stroke-width="3" fill="none"/>
  <text x="225" y="290" font-size="16" text-anchor="middle" fill="#1f2a44" font-family="sans-serif">User Reviews</text>
  
  <rect x="475" y="250" width="150" height="70" rx="15" ry="15" stroke="#1f2a44" stroke-width="3" fill="none"/>
  <text x="550" y="290" font-size="16" text-anchor="middle" fill="#1f2a44" font-family="sans-serif">Customer Service</text>

  <rect x="300" y="400" width="200" height="70" rx="15" ry="15" stroke="#1f2a44" stroke-width="3" fill="none"/>
  <text x="400" y="440" font-size="16" text-anchor="middle" fill="#1f2a44" font-family="sans-serif">Trusted Platform</text>

  <line x1="300" y1="170" x2="300" y2="250" stroke="#1f2a44" stroke-width="3" stroke-linecap="round"/>
  <line x1="450" y1="170" x2="450" y2="250" stroke="#1f2a44" stroke-width="3" stroke-linecap="round"/>
  <line x1="300" y1="325" x2="400" y2="400" stroke="#1f2a44" stroke-width="3" stroke-linecap="round"/>
  <line x1="450" y1="325" x2="400" y2="400" stroke="#1f2a44" stroke-width="3" stroke-linecap="round"/>

  <path d="M 225 170 Q 200 200 225 250" stroke="#1f2a44" stroke-width="3" fill="none" stroke-linecap="round"/>
  <path d="M 575 170 Q 600 200 575 250" stroke="#1f2a44" stroke-width="3" fill="none" stroke-linecap="round"/>
</svg>