<svg viewBox="0 0 800 480" xmlns="http://www.w3.org/2000/svg" style="background-color: #faf8f2;">
  <text x="50%" y="40" font-family="sans-serif" font-size="30" text-anchor="middle" fill="#1f2a44">Which Company Registration Service Has The Best Reviews?</text>
  <rect x="100" y="100" width="200" height="80" rx="15" ry="15" fill="none" stroke="#1f2a44" stroke-width="3"/>
  <text x="200" y="140" font-family="sans-serif" font-size="20" text-anchor="middle" fill="#1f2a44">Service A</text>
  
  <rect x="300" y="100" width="200" height="80" rx="15" ry="15" fill="none" stroke="#1f2a44" stroke-width="3"/>
  <text x="400" y="140" font-family="sans-serif" font-size="20" text-anchor="middle" fill="#1f2a44">Service B</text>
  
  <rect x="500" y="100" width="200" height="80" rx="15" ry="15" fill="none" stroke="#1f2a44" stroke-width="3"/>
  <text x="600" y="140" font-family="sans-serif" font-size="20" text-anchor="middle" fill="#1f2a44">Service C</text>
  
  <rect x="200" y="250" width="400" height="80" rx="15" ry="15" fill="none" stroke="#1f2a44" stroke-width="3"/>
  <text x="400" y="290" font-family="sans-serif" font-size="20" text-anchor="middle" fill="#1f2a44">Collect Reviews</text>
  
  <rect x="200" y="370" width="400" height="80" rx="15" ry="15" fill="none" stroke="#1f2a44" stroke-width="3"/>
  <text x="400" y="410" font-family="sans-serif" font-size="20" text-anchor="middle" fill="#1f2a44">Analyze & Compare</text>
  
  <path d="M 300 180 Q 310 210 310 250" fill="none" stroke="#1f2a44" stroke-width="3"/>
  <path d="M 500 180 Q 490 210 490 250" fill="none" stroke="#1f2a44" stroke-width="3"/>
  <path d="M 400 250 Q 400 270 400 300" fill="none" stroke="#1f2a44" stroke-width="3"/>
  <path d="M 400 350 Q 400 370 400 410" fill="none" stroke="#1f2a44" stroke-width="3"/>
</svg>