<svg viewBox="0 0 800 480" xmlns="http://www.w3.org/2000/svg" xmlns:xlink="http://www.w3.org/1999/xlink">
  <rect width="800" height="480" fill="#faf8f2"/>
  <text x="400" y="40" font-family="sans-serif" font-size="24" text-anchor="middle" fill="#1f2a44">ESOP Setup & Compliance Services</text>
  <rect x="50" y="100" width="200" height="100" rx="15" ry="15" fill="none" stroke="#1f2a44" stroke-width="3">
    <title>Consulting Firms</title>
  </rect>
  <text x="150" y="150" font-family="sans-serif" font-size="20" text-anchor="middle" fill="#1f2a44">Consulting Firms</text>
  
  <rect x="300" y="100" width="200" height="100" rx="15" ry="15" fill="none" stroke="#1f2a44" stroke-width="3">
    <title>Legal Advisors</title>
  </rect>
  <text x="400" y="150" font-family="sans-serif" font-size="20" text-anchor="middle" fill="#1f2a44">Legal Advisors</text>
  
  <rect x="550" y="100" width="200" height="100" rx="15" ry="15" fill="none" stroke="#1f2a44" stroke-width="3">
    <title>Financial Planners</title>
  </rect>
  <text x="650" y="150" font-family="sans-serif" font-size="20" text-anchor="middle" fill="#1f2a44">Financial Planners</text>

  <rect x="150" y="300" width="200" height="100" rx="15" ry="15" fill="none" stroke="#1f2a44" stroke-width="3">
    <title>ESOP Administrators</title>
  </rect>
  <text x="250" y="350" font-family="sans-serif" font-size="20" text-anchor="middle" fill="#1f2a44">ESOP Administrators</text>
  
  <rect x="400" y="300" width="200" height="100" rx="15" ry="15" fill="none" stroke="#1f2a44" stroke-width="3">
    <title>Tax Experts</title>
  </rect>
  <text x="500" y="350" font-family="sans-serif" font-size="20" text-anchor="middle" fill="#1f2a44">Tax Experts</text>

  <line x1="250" y1="200" x2="300" y2="200" stroke="#1f2a44" stroke-width="3" stroke-linecap="round"/>
  <line x1="500" y1="200" x2="550" y2="200" stroke="#1f2a44" stroke-width="3" stroke-linecap="round"/>
  <line x1="150" y1="200" x2="250" y2="300" stroke="#1f2a44" stroke-width="3" stroke-linecap="round"/>
  <line x1="400" y1="200" x2="500" y2="300" stroke="#1f2a44" stroke-width="3" stroke-linecap="round"/>
</svg>