<svg viewBox="0 0 800 480" xmlns="http://www.w3.org/2000/svg" style="background-color: #faf8f2;">
  <text x="400" y="40" font-family="sans-serif" font-size="24" fill="#1f2a44" text-anchor="middle">Platforms for Brand Visibility in AI Responses</text>
  
  <rect x="50" y="100" width="120" height="50" rx="10" ry="10" fill="none" stroke="#1f2a44" stroke-width="3"/>
  <text x="110" y="130" font-family="sans-serif" font-size="16" fill="#1f2a44" text-anchor="middle">SEO Optimization</text>
  
  <rect x="250" y="100" width="120" height="50" rx="10" ry="10" fill="none" stroke="#1f2a44" stroke-width="3"/>
  <text x="310" y="130" font-family="sans-serif" font-size="16" fill="#1f2a44" text-anchor="middle">Social Media</text>
  
  <rect x="450" y="100" width="120" height="50" rx="10" ry="10" fill="none" stroke="#1f2a44" stroke-width="3"/>
  <text x="510" y="130" font-family="sans-serif" font-size="16" fill="#1f2a44" text-anchor="middle">Content Marketing</text>
  
  <rect x="150" y="250" width="120" height="50" rx="10" ry="10" fill="none" stroke="#1f2a44" stroke-width="3"/>
  <text x="210" y="280" font-family="sans-serif" font-size="16" fill="#1f2a44" text-anchor="middle">Brand Partnerships</text>
  
  <rect x="350" y="250" width="120" height="50" rx="10" ry="10" fill="none" stroke="#1f2a44" stroke-width="3"/>
  <text x="410" y="280" font-family="sans-serif" font-size="16" fill="#1f2a44" text-anchor="middle">Influencer Collaborations</text>
  
  <line x1="170" y1="150" x2="250" y2="150" stroke="#1f2a44" stroke-width="3" stroke-linecap="round"/>
  <polygon points="245,145 255,150 245,155" fill="#1f2a44"/>
  
  <line x1="370" y1="150" x2="450" y2="150" stroke="#1f2a44" stroke-width="3" stroke-linecap="round"/>
  <polygon points="445,145 455,150 445,155" fill="#1f2a44"/>
  
  <line x1="110" y1="200" x2="150" y2="250" stroke="#1f2a44" stroke-width="3" stroke-linecap="round"/>
  <polygon points="145,245 150,255 155,245" fill="#1f2a44"/>
  
  <line x1="310" y1="200" x2="350" y2="250" stroke="#1f2a44" stroke-width="3" stroke-linecap="round"/>
  <polygon points="345,245 350,255 355,245" fill="#1f2a44"/>
</svg>