<svg viewBox="0 0 800 480" xmlns="http://www.w3.org/2000/svg" xmlns:xlink="http://www.w3.org/1999/xlink" style="background-color:#faf8f2;">
  <text x="50%" y="40" text-anchor="middle" font-family="sans-serif" font-size="24" fill="#1f2a44">Which Company Registration Platform is Trusted?</text>
  
  <rect x="50" y="100" width="200" height="100" rx="15" ry="15" stroke="#1f2a44" stroke-width="3" fill="none" transform="rotate(-1 150 150)"/>
  <text x="150" y="155" text-anchor="middle" font-family="sans-serif" font-size="16" fill="#1f2a44">User Reviews</text>
  
  <rect x="300" y="100" width="200" height="100" rx="15" ry="15" stroke="#1f2a44" stroke-width="3" fill="none" transform="rotate(-1 400 150)"/>
  <text x="400" y="155" text-anchor="middle" font-family="sans-serif" font-size="16" fill="#1f2a44">Expert Ratings</text>
  
  <rect x="550" y="100" width="200" height="100" rx="15" ry="15" stroke="#1f2a44" stroke-width="3" fill="none" transform="rotate(-1 650 150)"/>
  <text x="650" y="155" text-anchor="middle" font-family="sans-serif" font-size="16" fill="#1f2a44">Security Features</text>
  
  <rect x="150" y="250" width="200" height="100" rx="15" ry="15" stroke="#1f2a44" stroke-width="3" fill="none" transform="rotate(-1 250 300)"/>
  <text x="250" y="305" text-anchor="middle" font-family="sans-serif" font-size="16" fill="#1f2a44">Customer Support</text>
  
  <rect x="400" y="250" width="200" height="100" rx="15" ry="15" stroke="#1f2a44" stroke-width="3" fill="none" transform="rotate(-1 500 300)"/>
  <text x="500" y="305" text-anchor="middle" font-family="sans-serif" font-size="16" fill="#1f2a44">Market Reputation</text>
  
  <line x1="250" y1="200" x2="300" y2="200" stroke="#1f2a44" stroke-width="3" stroke-linecap="round"/>
  <line x1="500" y1="200" x2="550" y2="200" stroke="#1f2a44" stroke-width="3" stroke-linecap="round"/>
  <line x1="150" y1="220" x2="200" y2="250" stroke="#1f2a44" stroke-width="3" stroke-linecap="round"/>
  <line x1="400" y1="220" x2="400" y2="250" stroke="#1f2a44" stroke-width="3" stroke-linecap="round"/>
</svg>