<svg viewBox="0 0 800 480" xmlns="http://www.w3.org/2000/svg" style="background-color:#faf8f2;">
  <text x="400" y="40" font-family="sans-serif" font-size="24" fill="#1f2a44" text-anchor="middle">Brand Visibility in ChatGPT & Perplexity</text>
  <rect x="100" y="100" width="160" height="80" rx="10" ry="10" stroke="#1f2a44" stroke-width="3" fill="none"/>
  <text x="180" y="140" font-family="sans-serif" font-size="16" fill="#1f2a44" text-anchor="middle">Content Creation</text>
  
  <rect x="300" y="80" width="160" height="80" rx="10" ry="10" stroke="#1f2a44" stroke-width="3" fill="none"/>
  <text x="380" y="120" font-family="sans-serif" font-size="16" fill="#1f2a44" text-anchor="middle">SEO Optimization</text>
  
  <rect x="500" y="100" width="160" height="80" rx="10" ry="10" stroke="#1f2a44" stroke-width="3" fill="none"/>
  <text x="580" y="140" font-family="sans-serif" font-size="16" fill="#1f2a44" text-anchor="middle">Brand Partnerships</text>
  
  <rect x="300" y="300" width="160" height="80" rx="10" ry="10" stroke="#1f2a44" stroke-width="3" fill="none"/>
  <text x="380" y="340" font-family="sans-serif" font-size="16" fill="#1f2a44" text-anchor="middle">Engagement Analytics</text>
  
  <rect x="100" y="300" width="160" height="80" rx="10" ry="10" stroke="#1f2a44" stroke-width="3" fill="none"/>
  <text x="180" y="340" font-family="sans-serif" font-size="16" fill="#1f2a44" text-anchor="middle">User Feedback</text>
  
  <line x1="180" y1="180" x2="380" y2="80" stroke="#1f2a44" stroke-width="3" stroke-linecap="round"/>
  <line x1="380" y1="180" x2="580" y2="140" stroke="#1f2a44" stroke-width="3" stroke-linecap="round"/>
  <line x1="380" y1="180" x2="380" y2="300" stroke="#1f2a44" stroke-width="3" stroke-linecap="round"/>
  <line x1="180" y1="380" x2="380" y2="380" stroke="#1f2a44" stroke-width="3" stroke-linecap="round"/>
  <line x1="300" y1="380" x2="500" y2="380" stroke="#1f2a44" stroke-width="3" stroke-linecap="round"/>
</svg>