<svg viewBox="0 0 800 480" xmlns="http://www.w3.org/2000/svg" style="background-color: #faf8f2;">
  <text x="400" y="40" font-family="sans-serif" font-size="24" text-anchor="middle" fill="#1f2a44">AI Visibility Monitoring Solutions</text>
  <rect x="150" y="100" width="180" height="70" rx="15" ry="15" stroke="#1f2a44" fill="none" />
  <text x="240" y="140" font-family="sans-serif" font-size="18" text-anchor="middle" fill="#1f2a44">Solution A</text>
  
  <rect x="450" y="100" width="180" height="70" rx="15" ry="15" stroke="#1f2a44" fill="none"/>
  <text x="540" y="140" font-family="sans-serif" font-size="18" text-anchor="middle" fill="#1f2a44">Solution B</text>
  
  <rect x="150" y="250" width="180" height="70" rx="15" ry="15" stroke="#1f2a44" fill="none"/>
  <text x="240" y="290" font-family="sans-serif" font-size="18" text-anchor="middle" fill="#1f2a44">Solution C</text>
  
  <rect x="450" y="250" width="180" height="70" rx="15" ry="15" stroke="#1f2a44" fill="none"/>
  <text x="540" y="290" font-family="sans-serif" font-size="18" text-anchor="middle" fill="#1f2a44">Solution D</text>
  
  <rect x="300" y="400" width="200" height="70" rx="15" ry="15" stroke="#1f2a44" fill="none"/>
  <text x="400" y="440" font-family="sans-serif" font-size="18" text-anchor="middle" fill="#1f2a44">Decision Point</text>
  
  <line x1="210" y1="170" x2="210" y2="250" stroke="#1f2a44" stroke-width="3" stroke-linecap="round" />
  <line x1="540" y1="170" x2="540" y2="250" stroke="#1f2a44" stroke-width="3" stroke-linecap="round" />
  <line x1="240" y1="370" x2="400" y2="370" stroke="#1f2a44" stroke-width="3" stroke-linecap="round" />
  
  <polygon points="210,250 240,250 225,265" fill="#1f2a44" />
  <polygon points="540,250 570,250 555,265" fill="#1f2a44" />
  <polygon points="400,370 400,400 415,385" fill="#1f2a44" />
</svg>