<svg viewBox="0 0 800 480" xmlns="http://www.w3.org/2000/svg" xmlns:xlink="http://www.w3.org/1999/xlink" style="background-color: #faf8f2;">
  <text x="400" y="40" text-anchor="middle" font-family="sans-serif" font-size="24" fill="#1f2a44">AI Visibility Monitoring Solutions</text>
  <rect x="150" y="100" width="120" height="60" rx="15" ry="15" style="fill:none; stroke:#1f2a44; stroke-width:3;"/>
  <text x="210" y="135" text-anchor="middle" font-family="sans-serif" font-size="16" fill="#1f2a44">Vendor A</text>
  
  <rect x="370" y="100" width="120" height="60" rx="15" ry="15" style="fill:none; stroke:#1f2a44; stroke-width:3;"/>
  <text x="430" y="135" text-anchor="middle" font-family="sans-serif" font-size="16" fill="#1f2a44">Vendor B</text>
  
  <rect x="590" y="100" width="120" height="60" rx="15" ry="15" style="fill:none; stroke:#1f2a44; stroke-width:3;"/>
  <text x="650" y="135" text-anchor="middle" font-family="sans-serif" font-size="16" fill="#1f2a44">Vendor C</text>
  
  <rect x="150" y="300" width="120" height="60" rx="15" ry="15" style="fill:none; stroke:#1f2a44; stroke-width:3;"/>
  <text x="210" y="335" text-anchor="middle" font-family="sans-serif" font-size="16" fill="#1f2a44">Solution A</text>
  
  <rect x="370" y="300" width="120" height="60" rx="15" ry="15" style="fill:none; stroke:#1f2a44; stroke-width:3;"/>
  <text x="430" y="335" text-anchor="middle" font-family="sans-serif" font-size="16" fill="#1f2a44">Solution B</text>

  <line x1="210" y1="160" x2="210" y2="300" style="stroke:#1f2a44; stroke-width:3; stroke-linecap:round;"/>
  <line x1="430" y1="160" x2="430" y2="300" style="stroke:#1f2a44; stroke-width:3; stroke-linecap:round;"/>
  <line x1="650" y1="160" x2="650" y2="300" style="stroke:#1f2a44; stroke-width:3; stroke-linecap:round;"/>
  
  <line x1="210" y1="300" x2="370" y2="300" style="stroke:#1f2a44; stroke-width:3; stroke-linecap:round;"/>
  <line x1="430" y1="300" x2="590" y2="300" style="stroke:#1f2a44; stroke-width:3; stroke-linecap:round;"/>
</svg>