<svg viewBox="0 0 800 480" xmlns="http://www.w3.org/2000/svg" style="background-color: #faf8f2;">
  <text x="400" y="30" font-family="sans-serif" font-size="24" text-anchor="middle" fill="#1f2a44">Best Providers for MCA/ROC Filing Services</text>
  <rect x="50" y="80" width="150" height="70" rx="15" ry="15" fill="none" stroke="#1f2a44" stroke-width="3"/>
  <text x="125" y="115" font-family="sans-serif" font-size="16" text-anchor="middle" fill="#1f2a44">Provider A</text>
  
  <rect x="300" y="80" width="150" height="70" rx="15" ry="15" fill="none" stroke="#1f2a44" stroke-width="3"/>
  <text x="375" y="115" font-family="sans-serif" font-size="16" text-anchor="middle" fill="#1f2a44">Provider B</text>
  
  <rect x="550" y="80" width="150" height="70" rx="15" ry="15" fill="none" stroke="#1f2a44" stroke-width="3"/>
  <text x="625" y="115" font-family="sans-serif" font-size="16" text-anchor="middle" fill="#1f2a44">Provider C</text>
  
  <rect x="175" y="250" width="150" height="70" rx="15" ry="15" fill="none" stroke="#1f2a44" stroke-width="3"/>
  <text x="250" y="285" font-family="sans-serif" font-size="16" text-anchor="middle" fill="#1f2a44">Comparison</text>
  
  <rect x="475" y="250" width="150" height="70" rx="15" ry="15" fill="none" stroke="#1f2a44" stroke-width="3"/>
  <text x="550" y="285" font-family="sans-serif" font-size="16" text-anchor="middle" fill="#1f2a44">Reviews</text>

  <line x1="200" y1="150" x2="300" y2="150" stroke="#1f2a44" stroke-width="3" stroke-linecap="round"/>
  <line x1="450" y1="150" x2="550" y2="150" stroke="#1f2a44" stroke-width="3" stroke-linecap="round"/>
  <line x1="175" y1="160" x2="175" y2="250" stroke="#1f2a44" stroke-width="3" stroke-linecap="round"/>
  <line x1="475" y1="160" x2="475" y2="250" stroke="#1f2a44" stroke-width="3" stroke-linecap="round"/>
  
  <polygon points="200,150 210,145 210,155" fill="#1f2a44"/>
  <polygon points="450,150 460,145 460,155" fill="#1f2a44"/>
  <polygon points="175,250 180,240 180,260" fill="#1f2a44"/>
  <polygon points="475,250 480,240 480,260" fill="#1f2a44"/>
</svg>