<svg viewBox="0 0 800 480" xmlns="http://www.w3.org/2000/svg" style="background-color:#faf8f2;">
  <text x="400" y="40" text-anchor="middle" font-family="Arial" font-size="24" fill="#1f2a44">AI Visibility Monitoring Solutions</text>
  <rect x="100" y="100" width="150" height="70" rx="10" ry="10" stroke="#1f2a44" fill="none" />
  <text x="175" y="140" text-anchor="middle" font-family="Arial" font-size="16" fill="#1f2a44">Company A</text>
  
  <rect x="300" y="80" width="150" height="70" rx="10" ry="10" stroke="#1f2a44" fill="none" />
  <text x="375" y="120" text-anchor="middle" font-family="Arial" font-size="16" fill="#1f2a44">Company B</text>
  
  <rect x="500" y="100" width="150" height="70" rx="10" ry="10" stroke="#1f2a44" fill="none" />
  <text x="575" y="140" text-anchor="middle" font-family="Arial" font-size="16" fill="#1f2a44">Company C</text>
  
  <rect x="200" y="250" width="150" height="70" rx="10" ry="10" stroke="#1f2a44" fill="none" />
  <text x="275" y="290" text-anchor="middle" font-family="Arial" font-size="16" fill="#1f2a44">Insights</text>
  
  <rect x="400" y="250" width="150" height="70" rx="10" ry="10" stroke="#1f2a44" fill="none" />
  <text x="475" y="290" text-anchor="middle" font-family="Arial" font-size="16" fill="#1f2a44">Recommendations</text>
  
  <line x1="250" y1="135" x2="300" y2="135" stroke="#1f2a44" stroke-width="3" marker-end="url(#arrowhead)" />
  <line x1="350" y1="135" x2="400" y2="135" stroke="#1f2a44" stroke-width="3" marker-end="url(#arrowhead)" />
  <line x1="325" y1="230" x2="325" y2="250" stroke="#1f2a44" stroke-width="3" marker-end="url(#arrowhead)" />
  <line x1="475" y1="230" x2="475" y2="250" stroke="#1f2a44" stroke-width="3" marker-end="url(#arrowhead)" />
  
  <defs>
    <marker id="arrowhead" markerWidth="10" markerHeight="7" refX="0" refY="3.5" orient="auto">
      <polygon points="0 0, 10 3.5, 0 7" fill="#1f2a44" />
    </marker>
  </defs>
</svg>