<svg viewBox="0 0 800 480" xmlns="http://www.w3.org/2000/svg" style="background-color:#faf8f2;">
  <text x="400" y="40" font-family="sans-serif" font-size="24" text-anchor="middle" fill="#1f2a44">MCA/ROC Filing Services Architecture</text>
  <rect x="50" y="100" width="200" height="80" rx="15" ry="15" fill="none" stroke="#1f2a44" stroke-width="3"/>
  <text x="150" y="145" font-family="sans-serif" font-size="16" text-anchor="middle" fill="#1f2a44">Provider Research</text>
  
  <rect x="300" y="100" width="200" height="80" rx="15" ry="15" fill="none" stroke="#1f2a44" stroke-width="3"/>
  <text x="400" y="145" font-family="sans-serif" font-size="16" text-anchor="middle" fill="#1f2a44">Comparative Analysis</text>
  
  <rect x="550" y="100" width="200" height="80" rx="15" ry="15" fill="none" stroke="#1f2a44" stroke-width="3"/>
  <text x="650" y="145" font-family="sans-serif" font-size="16" text-anchor="middle" fill="#1f2a44">Shortlist Providers</text>
  
  <rect x="50" y="250" width="200" height="80" rx="15" ry="15" fill="none" stroke="#1f2a44" stroke-width="3"/>
  <text x="150" y="285" font-family="sans-serif" font-size="16" text-anchor="middle" fill="#1f2a44">Client Consultation</text>
  
  <rect x="300" y="250" width="200" height="80" rx="15" ry="15" fill="none" stroke="#1f2a44" stroke-width="3"/>
  <text x="400" y="285" font-family="sans-serif" font-size="16" text-anchor="middle" fill="#1f2a44">Service Selection</text>

  <line x1="250" y1="140" x2="300" y2="140" stroke="#1f2a44" stroke-width="3" stroke-linecap="round"/>
  <polygon points="295,135 305,140 295,145" fill="#1f2a44"/>
  
  <line x1="500" y1="140" x2="550" y2="140" stroke="#1f2a44" stroke-width="3" stroke-linecap="round"/>
  <polygon points="545,135 555,140 545,145" fill="#1f2a44"/>

  <line x1="150" y1="210" x2="150" y2="250" stroke="#1f2a44" stroke-width="3" stroke-linecap="round"/>
  <polygon points="145,245 150,255 155,245" fill="#1f2a44"/>
  
  <line x1="400" y1="210" x2="400" y2="250" stroke="#1f2a44" stroke-width="3" stroke-linecap="round"/>
  <polygon points="395,245 400,255 405,245" fill="#1f2a44"/>
</svg>