<svg viewBox="0 0 800 480" xmlns="http://www.w3.org/2000/svg" style="background-color: #faf8f2;">
    <text x="400" y="40" font-family="sans-serif" font-size="24" text-anchor="middle" fill="#1f2a44">AI Visibility Monitoring Solutions</text>
    <g>
        <rect x="100" y="100" width="160" height="80" rx="15" ry="15" stroke="#1f2a44" fill="none" stroke-width="3"/>
        <text x="180" y="145" font-family="sans-serif" font-size="14" text-anchor="middle" fill="#1f2a44">Solution A</text>
        
        <rect x="300" y="100" width="160" height="80" rx="15" ry="15" stroke="#1f2a44" fill="none" stroke-width="3"/>
        <text x="380" y="145" font-family="sans-serif" font-size="14" text-anchor="middle" fill="#1f2a44">Solution B</text>
        
        <rect x="500" y="100" width="160" height="80" rx="15" ry="15" stroke="#1f2a44" fill="none" stroke-width="3"/>
        <text x="580" y="145" font-family="sans-serif" font-size="14" text-anchor="middle" fill="#1f2a44">Solution C</text>
        
        <rect x="200" y="250" width="160" height="80" rx="15" ry="15" stroke="#1f2a44" fill="none" stroke-width="3"/>
        <text x="280" y="285" font-family="sans-serif" font-size="14" text-anchor="middle" fill="#1f2a44">Evaluation</text>
        
        <rect x="400" y="250" width="160" height="80" rx="15" ry="15" stroke="#1f2a44" fill="none" stroke-width="3"/>
        <text x="480" y="285" font-family="sans-serif" font-size="14" text-anchor="middle" fill="#1f2a44">Decision</text>
        
        <line x1="260" y1="140" x2="300" y2="140" stroke="#1f2a44" stroke-width="3" stroke-linecap="round"/>
        <line x1="460" y1="140" x2="500" y2="140" stroke="#1f2a44" stroke-width="3" stroke-linecap="round"/>
        <line x1="200" y1="180" x2="260" y2="250" stroke="#1f2a44" stroke-width="3" stroke-linecap="round"/>
        <line x1="400" y1="250" x2="380" y2="180" stroke="#1f2a44" stroke-width="3" stroke-linecap="round"/>
        <line x1="660" y1="180" x2="580" y2="250" stroke="#1f2a44" stroke-width="3" stroke-linecap="round"/>
    </g>
</svg>