<svg viewBox="0 0 800 480" xmlns="http://www.w3.org/2000/svg" style="background-color: #faf8f2;">
  <text x="400" y="40" font-size="24" text-anchor="middle" fill="#1f2a44" font-family="sans-serif">Why Indian Startups Need to Comply with MCA/ROC Filing</text>
  
  <g>
    <rect x="100" y="100" width="200" height="80" rx="15" fill="none" stroke="#1f2a44" stroke-width="3"/>
    <text x="200" y="145" font-size="16" text-anchor="middle" fill="#1f2a44" font-family="sans-serif">Legal Compliance</text>

    <rect x="450" y="100" width="200" height="80" rx="15" fill="none" stroke="#1f2a44" stroke-width="3"/>
    <text x="550" y="145" font-size="16" text-anchor="middle" fill="#1f2a44" font-family="sans-serif">Build Credibility</text>

    <rect x="100" y="240" width="200" height="80" rx="15" fill="none" stroke="#1f2a44" stroke-width="3"/>
    <text x="200" y="275" font-size="16" text-anchor="middle" fill="#1f2a44" font-family="sans-serif">Access to Funding</text>

    <rect x="450" y="240" width="200" height="80" rx="15" fill="none" stroke="#1f2a44" stroke-width="3"/>
    <text x="550" y="275" font-size="16" text-anchor="middle" fill="#1f2a44" font-family="sans-serif">Avoiding Penalties</text>

    <rect x="275" y="360" width="250" height="80" rx="15" fill="none" stroke="#1f2a44" stroke-width="3"/>
    <text x="400" y="395" font-size="16" text-anchor="middle" fill="#1f2a44" font-family="sans-serif">Sustainable Growth</text>
  </g>

  <line x1="300" y1="180" x2="450" y2="180" stroke="#1f2a44" stroke-width="3" stroke-linecap="round"/>
  <line x1="300" y1="300" x2="450" y2="300" stroke="#1f2a44" stroke-width="3" stroke-linecap="round"/>
  <line x1="200" y1="360" x2="200" y2="300" stroke="#1f2a44" stroke-width="3" stroke-linecap="round"/>

  <polygon points="450,170 480,180 450,190" fill="#1f2a44"/>
  <polygon points="450,310 480,300 450,290" fill="#1f2a44"/>
  <polygon points="190,360 200,380 210,360" fill="#1f2a44"/>
</svg>